<svg xmlns="http://www.w3.org/2000/svg" xmlns:xlink="http://www.w3.org/1999/xlink" viewBox="0 0 1920 1080">
  <defs>
    <style>
      .cls-1 {
        fill: none;
      }

      .cls-2 {
        fill: #b82025;
      }

      .cls-3 {
        fill: url(#linear-gradient);
      }

      .cls-10, .cls-4 {
        fill: #7c7c7c;
      }

      .cls-4, .cls-5 {
        stroke: #ccc;
      }

      .cls-16, .cls-4, .cls-5, .cls-9 {
        stroke-miterlimit: 10;
      }

      .cls-5, .cls-8 {
        fill: #ccc;
      }

      .cls-6 {
        fill: #f2f2f2;
      }

      .cls-7 {
        fill: #4d4d4d;
      }

      .cls-11, .cls-9 {
        fill: #fff;
      }

      .cls-16, .cls-9 {
        stroke: #000;
      }

      .cls-12 {
        font-size: 28.97px;
      }

      .cls-12, .cls-18, .cls-23 {
        font-family: Roboto-Thin, Roboto;
      }

      .cls-13 {
        letter-spacing: 0.02em;
      }

      .cls-14 {
        letter-spacing: -0.01em;
      }

      .cls-15 {
        letter-spacing: -0.01em;
      }

      .cls-16 {
        fill: #e6e6e6;
      }

      .cls-17 {
        fill: #b3b3b3;
      }

      .cls-18 {
        font-size: 35.48px;
      }

      .cls-19 {
        letter-spacing: -0.01em;
      }

      .cls-20 {
        fill: url(#New_Pattern_Swatch_1);
      }

      .cls-21 {
        fill: #333;
      }

      .cls-22 {
        fill: #20b8f1;
      }

      .cls-23 {
        font-size: 29.11px;
      }

      .cls-24 {
        letter-spacing: -0.01em;
      }

      .cls-25 {
        letter-spacing: -0.01em;
      }

      .cls-26 {
        letter-spacing: -0.01em;
      }

      .cls-27 {
        letter-spacing: -0.04em;
      }

      .cls-28 {
        letter-spacing: -0.05em;
      }
    </style>
    <linearGradient id="linear-gradient" x1="918.21" y1="707.37" x2="1294.91" y2="-805.24" gradientUnits="userSpaceOnUse">
      <stop offset="0" stop-color="#fff"/>
      <stop offset="1"/>
    </linearGradient>
    <pattern id="New_Pattern_Swatch_1" data-name="New Pattern Swatch 1" width="52" height="52" patternTransform="translate(385.01 3415.64) scale(1.97)" patternUnits="userSpaceOnUse" viewBox="0 0 52 52">
      <rect class="cls-1" width="52" height="52"/>
      <rect class="cls-2" width="52" height="52"/>
    </pattern>
  </defs>
  <title>20160321_prototype-assets_001</title>
  <g id="city_bg" data-name="city bg">
    <rect class="cls-3" width="1920" height="1079.17"/>
    <polygon class="cls-4" points="0.23 1078.84 -0.43 805.95 196.75 430.17 449.44 439.78 254.26 1079.67 0.23 1078.84"/>
    <polygon class="cls-5" points="449.88 440.16 511.5 625.02 449.88 1078 255.03 1078 449.88 440.16"/>
    <polygon class="cls-4" points="1918.13 806.88 1919.79 1080 1538.42 1080 1408.52 538.75 1693.3 427.17 1918.13 806.88"/>
    <polygon class="cls-5" points="1919.79 678.64 1918.13 806.88 1693.3 427.17 1774.9 482.13 1919.79 678.64"/>
    <polygon class="cls-4" points="573.45 1079.67 446.88 1078 485.19 796.55 595.1 803.22 573.45 1079.67"/>
    <polygon class="cls-5" points="636.74 1078 573.45 1079.67 595.1 803.22 625.08 894.81 636.74 1078"/>
  </g>
  <g id="clouds">
    <path class="cls-6" d="M192.63,239.73a150.08,150.08,0,0,1-38-17c-6.07-3.79-12.35-8.79-13.41-15.87-1.17-7.88,4.6-15,10.53-20.34a114.73,114.73,0,0,1,72.47-29c8.36-21.47,30.43-34.23,52-42.33a256.35,256.35,0,0,1,76.57-16c7.36-.39,15.62-.11,20.81,5.13s2.93,16.78-4.44,16.74a307,307,0,0,1,140.51-4.68c15.22,3.07,33.88,12.51,31.37,27.84-1.85,11.31-14.38,17-25.21,20.73L414,200.29c36.8.38,74.12.84,109.49,11,14.92,4.28,32.49,16.71,26.88,31.18-1.71,4.41-5.38,7.76-9.19,10.57-34.14,25.28-81.93,18.58-122.53,6.09S336.35,229.3,294.57,237c-15,2.77-29.26,8.72-44.29,11.25s-31.9,1.05-43.21-9.16"/>
    <path class="cls-6" d="M653.83,301.65a109.2,109.2,0,0,0,40.91-1.3c3.79-.85,7.65-2,10.65-4.43,3.6-3,5.47-7.47,7.63-11.6,10.54-20.08,30.62-34,52.2-40.94s44.67-7.75,67.32-6.82c9.45.39,22.22,5.17,20,14.38a290.15,290.15,0,0,1,157.11-9.44c8.63,1.9,19.44,7.88,16.83,16.32-1,3.13-3.66,5.38-6.34,7.27a80.35,80.35,0,0,1-25.68,12,177.12,177.12,0,0,1,82.28,12.23c9.18,3.73,18.8,9,22.26,18.32,3.85,10.32-1.67,22.28-10.32,29.1s-19.74,9.57-30.54,11.73c-75,15-152.28,10.26-228.57,5.42-43.23,27.53-99.49,33.5-147.53,15.65-8.42-3.13-17.42-7.83-20.19-16.36s6.22-19.78,14.13-15.52c-26.8,20.64-64.74,25.79-96.08,13.05a103.8,103.8,0,0,1,74-37.94"/>
    <path class="cls-6" d="M1382.85,166.68c6.91-2.5,15,1.7,21.81-.93,3.11-1.19,5.53-3.63,8-5.89a104.93,104.93,0,0,1,85.16-26.48c3,.43,6.19,1.13,8.15,3.41s1.64,6.61-1.23,7.54a139.38,139.38,0,0,1,75.15-3.64c8.34,1.92,18.34,7.37,17,15.81-.61,3.83-3.55,6.84-6.56,9.3a67.13,67.13,0,0,1-31.27,14.2c7.63.65,11.63,10.58,8.81,17.7s-10,11.52-17.1,14.34a79.05,79.05,0,0,1-65.53-3.77c-10.59-5.68-20-13.88-31.6-17.14-17.07-4.81-34.92,2-52.33,5.34a134.49,134.49,0,0,1-54.67-.86c-4.89-1.1-9.91-2.58-13.59-6s-5.54-9.25-3-13.57c1.69-2.89,4.88-4.5,7.93-5.87A183.52,183.52,0,0,1,1367,160c1.57-.41,3.65-.6,4.43.83s-2.54,2.5-2.11.94a33.8,33.8,0,0,1,28.06,3.44"/>
  </g>
  <g id="birds">
    <path class="cls-7" d="M922.19,141c6.45-6,16.21-5.87,23.48-1.4s11.44,12,14.16,19.68a1.52,1.52,0,0,0,2.51.66,110.46,110.46,0,0,1,46.85-23.5c3.46-.8,16.86-5,18.49.32.56,1.84,3.46,1.06,2.89-.8-1.29-4.22-5.64-4.89-9.57-4.56a98.92,98.92,0,0,0-22.15,4.8,115.51,115.51,0,0,0-38.63,21.62l2.51.66c-3.27-9.27-8.79-18.53-18-22.81-8.15-3.77-17.92-3-24.61,3.21-1.42,1.31.7,3.43,2.12,2.12Z"/>
    <path class="cls-7" d="M1303.12,303c-.89,3,1.86,4.85,4.67,3.81,2.57-1,4.56-2.67,7.33-3.3a21.83,21.83,0,0,1,10.54.33c14.18,3.8,20.58,18.14,23.25,31.33a1.51,1.51,0,0,0,2.51.66,123.75,123.75,0,0,1,67-36.39c1.9-.36,1.09-3.25-.8-2.89a126.48,126.48,0,0,0-68.31,37.16l2.51.66c-2.23-11.06-6.79-22.63-16.41-29.3a28.47,28.47,0,0,0-14.31-5,23.4,23.4,0,0,0-6.75.56,20.29,20.29,0,0,0-3.54,1.17c-.37.16-4.82,2.17-4.77,2,.54-1.86-2.35-2.65-2.89-.8Z"/>
  </g>
  <g id="cashier">
    <path class="cls-8" d="M1466.36,297.14l-14.56,2.05c-1.9.27-1.09,3.16.8,2.89l14.56-2.05c1.9-.27,1.09-3.16-.8-2.89Z"/>
    <rect class="cls-9" x="1113.37" y="113.65" width="671.13" height="503.35"/>
    <g>
      <path class="cls-8" d="M1448.13,576.92c.37-26.81,12.05-147.56,16.63-174l19.88,4.95a279.09,279.09,0,0,0,6.23,83.53q55.7-3.22,111.53-1.2c2.3.08,4.89.06,6.5-1.58s1.54-4.51,1.31-6.93a231.84,231.84,0,0,1,12.38-99.51l17.72,20.87a324.37,324.37,0,0,0,23.35,139.45c1.44,3.55,8.38,32.67,5,34.4"/>
      <path class="cls-10" d="M1449.63,576.92c.33-20.84,2.6-41.75,4.45-62.5,2.43-27.17,5.09-54.32,8.21-81.41,1.14-9.9,2.23-19.84,3.91-29.67l-1.85,1,19.88,4.95-1.1-1.45a286.17,286.17,0,0,0,6.29,83.93,1.51,1.51,0,0,0,1.45,1.1q31.83-1.81,63.72-2,14.94-.06,29.88.25c5.31.11,10.62.28,15.93.44,3.09.09,6.74.53,9.25-1.72,2-1.77,2.2-4.24,2.17-6.74-.05-4.76-.79-9.55-1-14.32A230.34,230.34,0,0,1,1624,382.6l-2.51.66,14.71,17.32c.76.9,2.18,2,2.66,3.13.73,1.67-.43,7.26-.48,9.53q-.33,14.34.62,28.68a328.3,328.3,0,0,0,8.43,55.23q3.36,13.95,8,27.56c2.3,6.8,5.4,13.4,7.44,20.27,1.48,5,2.57,10.17,3.54,15.29.6,3.17,1.16,6.36,1.46,9.57.07.81.78,5.21,0,5.79-1.54,1.13,0,3.73,1.51,2.59,2.39-1.75,1.73-5.85,1.49-8.38a130.45,130.45,0,0,0-2.75-16.11c-3.12-14.19-9.3-27.38-13.43-41.29a323.26,323.26,0,0,1-11.91-61.29q-1.45-15.2-1.45-30.5,0-7.4.34-14.8c.1-2.23.18-2.77-.75-4.37-2.4-4.09-6.61-7.78-9.67-11.39l-7.6-8.95a1.52,1.52,0,0,0-2.51.66,236.88,236.88,0,0,0-11.8,50.39,232.22,232.22,0,0,0-1.67,27.5q0,6.43.34,12.86c.24,4.38,2.07,10.36-.51,14-2,2.79-4,2.16-7.1,2.06l-8-.25q-7-.19-13.94-.31-14.44-.23-28.89-.11-29.39.24-58.74,1.94l1.45,1.1a283.33,283.33,0,0,1-6.18-83.14,1.51,1.51,0,0,0-1.1-1.45l-19.88-4.95a1.51,1.51,0,0,0-1.85,1c-3.54,20.69-5.36,41.75-7.5,62.62-2.8,27.29-5.39,54.62-7.46,82-.75,9.9-1.57,19.84-1.72,29.78a1.5,1.5,0,0,0,3,0Z"/>
    </g>
    <path class="cls-10" d="M1550.93,214.5c-41.79-3.15-79.92,25-94,63.58-13.93,38.32-6.08,84.19,22.17,114.06,12.57,13.3,29.1,23,47.47,25,20.91,2.36,41.88-5.48,58.27-18.18,31.7-24.57,46.72-67.61,39-106.73-8.53-43.22-45.69-77.9-88.88-85.06-1.89-.31-2.7,2.58-.8,2.89,36.48,6,68.79,32,82.08,66.63,13.73,35.8,5.46,78.62-19.82,107.31-13.54,15.36-32.21,26.93-52.67,29.87-19.14,2.75-38.05-3.23-53.08-15.17-30.71-24.41-42.87-66.63-35.19-104.39,4.49-22.07,15.83-42.39,33.36-56.69,17.37-14.17,39.61-21.84,62-20.15,1.93.15,1.92-2.86,0-3Z"/>
    <path class="cls-10" d="M1518.29,368.44l47.46-13.71-1.69-2.2a144.77,144.77,0,0,1-24.61,31.24h2.12a62.44,62.44,0,0,0-26.6-19.85c-1.79-.71-2.57,2.19-.8,2.89a59.73,59.73,0,0,1,25.28,19.08,1.52,1.52,0,0,0,2.12,0A147.66,147.66,0,0,0,1566.64,354a1.52,1.52,0,0,0-1.69-2.2l-47.46,13.71a1.5,1.5,0,0,0,.8,2.89Z"/>
    <path class="cls-10" d="M1487.6,324.27a1.5,1.5,0,0,0,0-3,1.5,1.5,0,0,0,0,3Z"/>
    <path class="cls-10" d="M1486.49,327a7.86,7.86,0,0,1,14.45-5.94,1.5,1.5,0,0,0,2.59-1.51c-2.72-4.67-8.59-7.11-13.74-5s-7.55,8-6.19,13.25a1.5,1.5,0,0,0,2.89-.8Z"/>
    <path class="cls-10" d="M1556.89,314.7c-.31-4.29,2.61-8.94,7.27-9.19a8.47,8.47,0,0,1,8.42,6.48,1.5,1.5,0,0,0,2.89-.8c-1.39-5.35-6.62-9.39-12.27-8.58s-9.72,6.42-9.31,12.09c.14,1.91,3.14,1.93,3,0Z"/>
    <path class="cls-10" d="M1619.24,383.14c36.57-.83,66.76,24,86,53.07,9.77,14.72,17.48,30.7,24.62,46.83q6,13.62,11.42,27.51,2.73,7,5.3,14.13c.48,1.33,5.76,13.73.93,13.12-1.91-.24-1.89,2.76,0,3,11.88,1.49-1.7-26.81-3-30.17-6.12-15.82-12.77-31.49-20.22-46.73-13.48-27.56-31-54.44-57.91-70.56-14.27-8.56-30.47-13.57-47.18-13.19-1.93,0-1.93,3,0,3Z"/>
    <path class="cls-10" d="M1641.74,396.52a1.5,1.5,0,0,0,0-3,1.5,1.5,0,0,0,0,3Z"/>
    <g>
      <path class="cls-8" d="M1345.47,583.05c4.27-2.1,4.33-8.07,3.76-12.8l-17.75-147.37,34.71-7a14.89,14.89,0,0,1,6.32-.36c7.7,1.81,7.45,12.55,7.92,20.45.89,15,10.92,28.17,22.86,37.36s25.89,15.31,38.83,23a182.31,182.31,0,0,1,53.87,49c2.15,2.94,4.42,6.11,7.84,7.36,3.18,1.16,6.68.41,10-.08,7.43-1.1,15.39-.81,21.92,2.89s11.16,11.45,9.44,18.76a861.75,861.75,0,0,1-204.78,22"/>
      <path class="cls-10" d="M1346.23,584.35c8.54-5.24,3.78-20.12,2.85-27.85l-5.32-44.21L1333,422.89l-1.1,1.45,26-5.29c4-.8,9-2.65,13-2.28,4.85.45,6.42,4.73,7.16,8.85,1.09,6.09.51,12.27,2.12,18.3a49.89,49.89,0,0,0,8.56,17c8.88,11.8,21.55,19.59,34.31,26.57,13.87,7.59,27.49,15.11,39.8,25.14a190.32,190.32,0,0,1,32.27,34.08c3.58,4.8,7.29,8.33,13.62,8,8.59-.38,16.56-2.67,24.82,1.28a19,19,0,0,1,8.35,7.62,15.48,15.48,0,0,1,1.91,5.3c.53,3.27-.71,4.23-3.78,4.92q-12.83,2.88-25.74,5.38-27.05,5.22-54.41,8.7a868.21,868.21,0,0,1-119.49,6.78,1.5,1.5,0,0,0,0,3,871,871,0,0,0,205.18-22,1.47,1.47,0,0,0,1-1c1.33-7.34-1.87-14.41-7.78-18.88-7.24-5.48-16.6-5.71-25.23-4.64-3.5.44-7.1,1.42-10.47-.39-2.76-1.48-4.6-4.42-6.39-6.84-2.89-3.9-5.9-7.7-9.08-11.36a182.71,182.71,0,0,0-22.7-22c-16.2-13.2-34.89-21.5-52.42-32.58-9.34-5.9-18.05-13.09-24-22.53a43.9,43.9,0,0,1-5.84-13.75c-1.07-4.79-.82-9.69-1.42-14.54-.81-6.6-3.5-13.34-11.18-13.3-5.87,0-12.12,2.17-17.85,3.34l-21.21,4.31a1.5,1.5,0,0,0-1.1,1.45l9.82,81.54,4.85,40.28,2.37,19.65c.61,5,3.07,14.1-2.31,17.4-1.64,1-.14,3.6,1.51,2.59Z"/>
    </g>
    <g>
      <path class="cls-8" d="M1326.15,427.05a723.67,723.67,0,0,1-136.92-31.6q-6.39,76.48-18.75,152.31a546.35,546.35,0,0,1,165,43.85"/>
      <path class="cls-10" d="M1326.15,425.55A731,731,0,0,1,1189.62,394a1.52,1.52,0,0,0-1.9,1.45q-6.42,76.29-18.7,151.91a1.53,1.53,0,0,0,1.45,1.9,549.16,549.16,0,0,1,164.27,43.64c1.75.77,3.28-1.81,1.51-2.59a553.79,553.79,0,0,0-165.78-44.05l1.45,1.9q12.34-76,18.8-152.71l-1.9,1.45a735,735,0,0,0,137.32,31.65c1.91.25,1.89-2.75,0-3Z"/>
    </g>
    <g>
      <path class="cls-8" d="M1179.84,397.08c23.54-14.79,53.89-10,81.18-4.7l109.74,21.31c3.63.71,8.29,2.83,7.53,6.45"/>
      <path class="cls-10" d="M1180.59,398.37c27.7-16.85,62.13-8,91.78-2.27l52.91,10.27,25.48,4.95,13.72,2.66c3.31.64,12.58,1.08,12.3,6.14-.1,1.93,2.9,1.92,3,0,.35-6.56-7.7-7.71-12.55-8.66l-29.39-5.71L1277.09,394c-31.56-6.13-68.44-16.18-98,1.81-1.65,1-.14,3.6,1.51,2.59Z"/>
    </g>
    <path class="cls-10" d="M1546.06,579.77a1262.44,1262.44,0,0,1,219.8,8.56c1.91.24,1.89-2.76,0-3a1262.44,1262.44,0,0,0-219.8-8.56c-1.92.09-1.93,3.09,0,3Z"/>
    <path class="cls-10" d="M1165,521.42v-1.22a1.5,1.5,0,0,0-3,0v1.22a1.5,1.5,0,1,0,3,0Z"/>
    <path class="cls-10" d="M1156.58,515.11a198.09,198.09,0,0,0-37.06-3.77,1.5,1.5,0,0,0,0,3,193.72,193.72,0,0,1,36.26,3.66c1.89.37,2.69-2.52.8-2.89Z"/>
    <g>
      <path class="cls-11" d="M1346.24,276.48a230.77,230.77,0,0,0,44.46,13.05c-16-7.74-33.34-19.76-33.87-37.5-.22-7.3,2.6-14.35,3.16-21.63.91-11.92-4.3-23.53-11.08-33.37-20.67-30-56-47.6-91.89-53.7s-72.79-1.91-108.73,4.13c-22.76,3.83-46,8.64-65.36,21.23s-34.11,34.71-31.63,57.65c2.32,21.45,18.88,38.9,37.41,49.94,34.37,20.47,76.2,24,116.18,22.45a532.24,532.24,0,0,0,138.8-24"/>
      <path d="M1346.14,276.84a239.83,239.83,0,0,0,44.46,13.05c.39.07.7-.49.29-.69-10.78-5.29-22.05-11.93-28.77-22.22a29.09,29.09,0,0,1-4.79-18.58c.6-7.22,3.26-14.09,3.14-21.4-.39-22.88-19.55-43.59-36.79-56.51C1280,137.72,1222.93,136.6,1171,143.61c-27.16,3.67-56.3,7.36-80.83,20.39-19.22,10.21-36,28.26-39,50.49-3.19,23,10.88,43.09,28.55,56.23,20.68,15.38,46.45,23.06,71.72,26.41,30.88,4.1,62.6,2.46,93.46-1.06a537.57,537.57,0,0,0,98.93-21c.46-.14.26-.87-.2-.72-55.86,17.41-116.31,27.41-174.92,23.66-27.68-1.77-55.72-7.73-79.76-22.1-21.8-13-41.39-35.76-36.81-62.83s28.07-45.68,52.5-54.73c12.49-4.63,25.58-7.39,38.67-9.69,15.56-2.74,31.21-5.1,46.95-6.55,52.62-4.85,111.84,2.54,149.39,43.76,10.48,11.51,20.56,26.58,20.11,42.79-.22,7.89-3.49,15.4-3.25,23.33a29.41,29.41,0,0,0,4.3,14.19c5.88,9.8,16,16.52,26,21.72l1.27.66q1.88,1.34,1,.22c-1.32.55-5.83-1.21-7.26-1.54q-5.43-1.24-10.79-2.75a238.23,238.23,0,0,1-24.58-8.41c-.45-.18-.64.55-.2.72Z"/>
    </g>
    <text class="cls-12" transform="translate(1103.44 216.08)">Morning, Adam. <tspan x="0" y="34.76">What</tspan><tspan class="cls-13" x="66.55" y="34.76">’</tspan><tspan x="71.53" y="34.76">ll it be </tspan><tspan class="cls-14" x="149.86" y="34.76">t</tspan><tspan x="158.74" y="34.76">od</tspan><tspan class="cls-15" x="190.54" y="34.76">a</tspan><tspan x="205.62" y="34.76">y?</tspan></text>
  </g>
  <g id="coffee_counter" data-name="coffee counter">
    <rect class="cls-16" x="197.85" y="401" width="597.25" height="644"/>
    <path class="cls-10" d="M710.89,1016.53l-2.74-2.74a1.5,1.5,0,0,0-2.12,2.12l2.74,2.74a1.5,1.5,0,0,0,2.12-2.12Z"/>
    <polygon class="cls-17" points="202.78 1038.1 204.75 683.3 717.24 1038.1 735.64 1045 202.78 1038.1"/>
    <path class="cls-10" d="M523.08,909.17a2133.89,2133.89,0,0,0,191.69,112c1.71.88,3.23-1.7,1.51-2.59a2133.89,2133.89,0,0,1-191.69-112c-1.62-1.06-3.12,1.53-1.51,2.59Z"/>
    <path class="cls-10" d="M214.3,692.09l138.52,89.27c1.63,1,3.13-1.55,1.51-2.59L215.81,689.5c-1.63-1-3.13,1.55-1.51,2.59Z"/>
    <g>
      <path class="cls-11" d="M510.48,466.14a569.06,569.06,0,0,0-263.22,14c-7,2.09-15.1,5.38-16.87,12.5-1,4.15.47,8.5,2.47,12.28,12.73,24,42.77,32.19,69.67,36.25,94.59,14.3,191.1,7.86,286.09-3.51,8.59-1,17.41-2.17,25-6.3s13.82-12,13.45-20.62c-.51-12-12.53-19.86-23.44-24.9A283.47,283.47,0,0,0,479,459.94"/>
      <path d="M510.58,465.78A572,572,0,0,0,323,462.94q-24.08,3.64-47.79,9.34-11.38,2.74-22.65,5.95c-5.57,1.59-11.58,3-16.44,6.32-9.37,6.41-6.52,16.58-1.08,24.76,6.16,9.26,15.29,16,25.25,20.69,23.9,11.32,52.1,13.47,78.05,16a855.58,855.58,0,0,0,100.27,3.58c33.23-.65,66.42-2.89,99.5-6.05q25.29-2.42,50.52-5.48c12.06-1.46,25.46-3.35,33.68-13.3,6.23-7.54,6.8-17.41.91-25.29-7.34-9.83-20.32-14.63-31.24-19.08A284.32,284.32,0,0,0,502.82,460c-7.94-.5-15.89-.63-23.84-.48a.38.38,0,0,0,0,.75A285.67,285.67,0,0,1,565.81,472,249.15,249.15,0,0,1,606,487.39c10.78,5.38,23.9,15,20.07,28.88-4.29,15.47-22.06,19.11-35.71,20.82-15.44,1.94-30.92,3.59-46.4,5.12-29.84,3-59.75,5.18-89.72,6.2s-59.82.83-89.67-1.05c-28.06-1.77-57.2-3.81-84.46-11.08-10.84-2.89-21.6-7-30.79-13.53-8.67-6.18-24.48-21.74-17.1-33.34,3.25-5.1,9.67-7.23,15.16-8.9,7.16-2.19,14.42-4.11,21.68-5.95q21.79-5.52,44-9.28a570.94,570.94,0,0,1,197.37,1.21c.47.09.67-.64.2-.72Z"/>
    </g>
    <text class="cls-18" transform="translate(282.27 520.27)">Small cof<tspan class="cls-19" x="143.32" y="0">f</tspan><tspan x="154.08" y="0">ee, please</tspan></text>
  </g>
  <g id="coffee">
    <g>
      <path class="cls-20" d="M684.82,733.53l-9.14,60c-2.53,16.62-5.27,33.77-14.3,47.95a60.6,60.6,0,0,1-97,7l-2.36-.3L515,744.38"/>
      <path class="cls-10" d="M683.38,733.13c-3.56,23.32-6.75,46.72-10.74,70-3.62,21.1-10.45,41.76-28.92,54.37a59.17,59.17,0,0,1-58,5,60.31,60.31,0,0,1-13-8c-2.58-2.1-5.33-6.45-8.35-7.52-.33-.11-.89,0-1.18-.15-1.54-1,.13-.09-.71-1.23-1.78-2.41-2.89-6.37-4.13-9.1L551,820.1l-34.66-76.48c-.8-1.76-3.38-.23-2.59,1.51l33,72.84L555,836.18l4.13,9.1c.74,1.63,1.12,3.57,2.75,4.36.4.19,1,0,1.38.18,1,.51.43.38,1.16.88,2,1.42,3.71,3.78,5.65,5.41a62.74,62.74,0,0,0,12.75,8.31A62.07,62.07,0,0,0,638,864.3c18.94-9.5,29.83-27.05,34.82-47.15,3.15-12.7,4.69-25.81,6.66-38.73l6.78-44.49c.29-1.89-2.6-2.7-2.89-.8Z"/>
    </g>
    <g>
      <path class="cls-21" d="M490.47,681.41l9.51,48C548.13,764,615.55,769.54,668.7,743.3c15.28-7.55,31-20.58,30.17-37.6-.66-13.26-11.51-24.64-11.16-37.91"/>
      <path class="cls-10" d="M489,681.81l8,40.33c.44,2.22.5,6.2,1.67,8,.88,1.38,3.06,2.32,4.38,3.21a155.47,155.47,0,0,0,13.33,8A169,169,0,0,0,575.49,760a170.92,170.92,0,0,0,62.24-3.73c18.77-4.7,39.85-12.41,53.16-27.11,6.5-7.18,10.57-16.27,9.2-26.09-1.73-12.37-10.81-22.51-10.89-35.24a1.5,1.5,0,0,0-3,0c.05,9.65,4.92,17.76,8.33,26.49,3.86,9.88,3.72,19.56-2.41,28.49C681,738.91,659.54,747,641.44,752.13a168.59,168.59,0,0,1-116.59-9.8q-7-3.33-13.71-7.35-3.67-2.21-7.21-4.62c-3.28-2.23-3.3-5.34-4-9l-8-40.33c-.37-1.89-3.27-1.09-2.89.8Z"/>
    </g>
    <g>
      <path class="cls-21" d="M615.91,633.67A137.43,137.43,0,0,0,517.46,649c-11.82,6.92-23.88,19.59-19.25,32.48,2.52,7,9.31,11.47,15.77,15.2,42.33,24.39,93.47,40.1,140,25.38,12.2-3.86,24.06-10,32.38-19.68S699,678.85,695,666.66C690,651,673.54,642,657.62,638a118.58,118.58,0,0,0-57.71-.16"/>
      <path class="cls-10" d="M616.31,632.23C582.52,624.87,545,630,515.39,648.5,504.27,655.45,491,669,497.32,683.26c2.84,6.37,8.8,10.52,14.61,14A259,259,0,0,0,536.38,710c32,14.66,68,23.52,103.11,17.23,16-2.88,32.76-8.75,44.7-20.27,10.6-10.22,16.92-26.13,12.3-40.66-4.84-15.22-19.94-24.14-34.38-28.6-20.19-6.24-42.16-6.23-62.6-1.31-1.88.45-1.08,3.35.8,2.89a118.45,118.45,0,0,1,53.25-.71c13.33,2.94,27.78,8.69,35.89,20.29,9.24,13.21,5.93,30.72-4.11,42.51-9.88,11.6-24.67,17.82-39.15,21.38-31.11,7.65-63.81,2.16-93.34-9.06-14.65-5.56-29.5-12.38-42.64-21C503.15,688,497,681,499.13,672c1.74-7.58,7.81-13.77,13.88-18.26,13.86-10.26,31.65-16.32,48.45-19.47a136.37,136.37,0,0,1,54.05.85c1.88.41,2.69-2.48.8-2.89Z"/>
    </g>
    <path class="cls-10" d="M656.75,669.31c-8.07,6.13-18.92-.26-27.84,3.25-7.34,2.89-8.89,11.36-5.27,17.85,4.73,8.47,15.33,9.36,23.77,6.68,10.5-3.34,19.23-11,25-20.23,1-1.64-1.56-3.15-2.59-1.51-5.11,8.13-12.61,14.94-21.71,18.32-8.4,3.12-20.55,2.69-23.12-7.87s8.39-11.69,15.83-11.15c6,.43,12.31,1.13,17.41-2.74,1.52-1.15,0-3.76-1.51-2.59Z"/>
    <path class="cls-10" d="M572,656.72c-12,16.82-5.71,42.62,12.66,52,1.71.88,3.23-1.71,1.51-2.59-17-8.73-22.71-32.39-11.59-47.94,1.13-1.57-1.48-3.07-2.59-1.51Z"/>
    <path class="cls-10" d="M593.3,662.05c-9.4,24.41,11.88,49.15,37.35,44.2,1.89-.37,1.09-3.26-.8-2.89-23.43,4.56-42.16-18.44-33.66-40.51.69-1.8-2.2-2.58-2.89-.8Z"/>
  </g>
  <g id="get_coffee" data-name="get coffee">
    <g>
      <path class="cls-11" d="M197.14,976.45A427.81,427.81,0,0,1,269.89,916c20.16-13.29,41.88-25.24,57.25-43.85,18.46-22.34,25.63-51.64,38.44-77.64S401.52,743.28,430.5,744c2.45.06,5.18.45,6.74,2.34,3.81,4.6-2.77,10.36-7.74,13.68A42.15,42.15,0,0,0,411.1,795.8a80.05,80.05,0,0,1,63-42.16l-48.81,39.29c13.82-.42,24.89-10.88,36.43-18.49s28.53-12.08,38.07-2.07c-36.12,19.35-54.39,66.67-40.64,105.26a74.61,74.61,0,0,0,48.74-13.44c5.55,11.79-3.35,26.11-15,31.93s-25.22,5.83-38.15,7.48c-52.79,6.75-97.13,41.49-138.53,74.92l-75.52,61"/>
      <path class="cls-10" d="M198.2,977.51a430.07,430.07,0,0,1,66.51-56.27c21.83-14.92,46.38-27.35,63.5-48.07,16.58-20.07,24.1-45.39,34.44-68.83,9.88-22.4,24.85-46,48.67-55.36a47,47,0,0,1,19.18-3.47c3.57.17,7.71,2.3,5.56,6.36a16.89,16.89,0,0,1-4.33,4.67c-2.61,2.14-5.51,3.84-8,6.12A44.18,44.18,0,0,0,409.6,795.8a1.51,1.51,0,0,0,2.8.76,79.07,79.07,0,0,1,61.74-41.42l-1.06-2.56-48.81,39.29a1.51,1.51,0,0,0,1.06,2.56c13.82-.81,24.27-9.86,35.2-17.35,10.61-7.27,27.41-14.2,38.24-3.65l.3-2.36c-36.8,20.14-55.05,67.31-41.33,107a1.57,1.57,0,0,0,1.45,1.1,77.35,77.35,0,0,0,49.49-13.64l-2.05-.54c4.43,10.44-2.19,21.77-10.83,27.72C486.9,898.82,475.42,900,465,901c-19.9,2-38.73,6.41-57.1,14.47-38.5,16.87-71.08,44.52-103.49,70.7l-64.73,52.28c-1.5,1.21.63,3.32,2.12,2.12L301.89,992c18.23-14.73,36.31-29.71,55.38-43.36,18.07-12.93,37.19-24.75,57.88-33a168.73,168.73,0,0,1,30.94-9.16c10.86-2.07,22-2.24,32.82-4.32,10.13-1.94,19.76-5.92,26.21-14.28,5.5-7.13,7.69-16,4.11-24.46a1.5,1.5,0,0,0-2.05-.54,74.68,74.68,0,0,1-48,13.23l1.45,1.1c-13.3-38.43,4.26-84,39.95-103.57a1.51,1.51,0,0,0,.3-2.36c-9.1-8.87-22.45-6.88-33.06-2-14.56,6.75-25.52,21.09-42.5,22.08l1.06,2.56L475.2,754.7a1.51,1.51,0,0,0-1.06-2.56A82.14,82.14,0,0,0,409.8,795l2.8.76c-.21-15.16,7.41-26.93,19.29-35.63,3.25-2.38,7.56-5.82,7.91-10.21.37-4.54-3.6-6.87-7.61-7.34-23.6-2.79-44.9,15.91-57.54,33.67-16.35,23-22.78,51.06-36,75.7a114,114,0,0,1-27.37,33.79c-11.34,9.51-24,17.21-36.47,25.2a441.38,441.38,0,0,0-78.71,64.41c-1.34,1.39.78,3.51,2.12,2.12Z"/>
    </g>
    <g>
      <path class="cls-11" d="M841,878.11c-49-16-100.11-11.17-147.87,14-4,2.09-8.48,5.38-9.48,12.5A29.7,29.7,0,0,0,685,916.9c7.15,24,24,32.19,39.14,36.25,53.14,14.3,107.36,7.86,160.72-3.51,4.83-1,9.78-2.17,14.05-6.3s7.77-12,7.56-20.62c-.29-12-7-19.86-13.17-24.9-21.84-17.94-46-26.88-70-25.92"/>
      <path d="M841.05,877.75a186.66,186.66,0,0,0-116,.3,208.35,208.35,0,0,0-27.17,11.18c-6.08,3-12.19,6-14.17,13-2.13,7.57.81,16.11,4,23a47.93,47.93,0,0,0,13.14,17.2c11.26,9.18,26.18,12.34,40.1,15a274.05,274.05,0,0,0,63.46,4,454.42,454.42,0,0,0,63.57-8c8.69-1.65,19.3-2.32,27.11-6.78,6.49-3.71,10.1-10.77,11.31-18,3.23-19.17-11.43-31.45-26-40.7-17.12-10.88-36.8-17.11-57.16-16.48-.48,0-.48.77,0,.75a97.37,97.37,0,0,1,48.58,11.61c13.62,7.19,30.72,17.62,33.76,34,1.77,9.54-1.11,21.53-9.53,27.24-7,4.75-17.35,5.43-25.47,7a481.54,481.54,0,0,1-57.66,8A293.64,293.64,0,0,1,756.13,959c-15.32-1.9-32.17-4.36-46.08-11.5a49.53,49.53,0,0,1-25.57-34.05c-1.08-5.11-1.12-10.82,1.92-15.3,2.28-3.36,5.86-5.2,9.36-7a209.34,209.34,0,0,1,26.94-11.51,186.15,186.15,0,0,1,118.14-1.17c.46.15.66-.58.2-.72Z"/>
    </g>
    <text class="cls-18" transform="translate(735.64 932.24)">Thanks</text>
  </g>
  <g id="coins">
    <path class="cls-8" d="M1218.11,867.69a1.5,1.5,0,0,0,0-3,1.5,1.5,0,0,0,0,3Z"/>
    <g>
      <g>
        <path class="cls-8" d="M1392.76,595.68c7.2-.72,8.73,10.23,14.29,14.86,4.13,3.44,10.17,2.94,15.45,2,51.52-9.6,93.47-46.89,126.91-87.24,5.91-7.13,11.87-14.94,12.84-24.14s-5.32-19.77-14.58-19.88"/>
        <path class="cls-21" d="M1392.76,597.18c6.75-.15,8.83,11,13.53,14.66,6.17,4.86,15.1,2.56,22,1a166.23,166.23,0,0,0,49.41-20.52,251.13,251.13,0,0,0,43.45-34.15c12.95-12.49,26.66-26.18,36.49-41.33,4.76-7.35,8-16.29,4.88-24.91-2.39-6.64-7.67-11.71-14.88-12.16-1.93-.12-1.92,2.88,0,3,8.92.56,13.88,10.21,13,18.35-.95,9.19-7.18,16.87-12.87,23.72a375.75,375.75,0,0,1-33.44,35.64c-24.07,22.3-52.36,41.09-84.57,48.94-4.75,1.16-9.83,2.52-14.75,2.32-5.52-.22-8.56-3.37-11.21-7.83s-5.15-9.84-11.11-9.71c-1.93,0-1.93,3,0,3Z"/>
      </g>
      <g>
        <path class="cls-8" d="M1517.25,469.63A218.86,218.86,0,0,0,1400.4,576.72c-2.81,5.75-5.1,13.37-.63,17.95a13.47,13.47,0,0,0,6.26,3.2c15.57,4.23,32-1.71,46.47-8.89A264.49,264.49,0,0,0,1537,522.6c11.07-13.15,21.2-31.57,12.89-46.61-6.58-11.92-22.65-15.77-35.86-12.49"/>
        <path class="cls-21" d="M1516.85,468.18a221,221,0,0,0-102.37,81.35,212.62,212.62,0,0,0-11.89,19.61c-2.91,5.45-6.39,11.35-6.78,17.67-.94,15,19.68,14.89,29.9,13.21,16.71-2.75,32.5-11.66,46.81-20.33a267.27,267.27,0,0,0,39-28.8c11.82-10.5,23.62-22.09,32.59-35.17,8.46-12.33,15.28-29.71,5.28-43.2-8.07-10.89-23.28-13.32-35.78-10.46-1.88.43-1.08,3.32.8,2.89,11.79-2.7,26.55-.27,33.5,10.67,8.23,12.95.56,28.86-7.32,39.92-16.51,23.14-40.1,42.75-63.87,58-12.41,8-25.68,15.62-39.65,20.44-10.88,3.76-43.82,9.49-37.38-11.57,1.83-6,5.34-11.69,8.43-17.08q4.94-8.63,10.67-16.77a218.24,218.24,0,0,1,98.83-77.46c1.78-.69,1-3.59-.8-2.89Z"/>
      </g>
    </g>
    <g>
      <g>
        <path class="cls-8" d="M1213.39,824.48c5.53,2.33,2.31,10.92,4.52,16.5,1.65,4.14,6.25,6.17,10.48,7.55,41.36,13.42,86.72,2.86,127.09-13.29,7.13-2.85,14.57-6.18,18.93-12.51s4-16.52-2.75-20.27"/>
        <path class="cls-21" d="M1212.63,825.77c4.78,2.59,2.06,11.47,4,16,2.23,5.2,8.08,7.23,13.08,8.78,15.62,4.83,32.15,6.31,48.43,5.36a214.77,214.77,0,0,0,48-8.79c8.37-2.46,16.62-5.31,24.77-8.44,6.52-2.5,13.42-4.94,19-9.2,8.63-6.56,13.46-21.28,2.51-28.28-1.63-1-3.14,1.55-1.51,2.59,7.82,5,5.15,15.87-.51,21.37-6.3,6.11-15.64,8.9-23.67,11.9-17.16,6.4-34.89,11.58-53,14.25-18.39,2.71-37.33,2.73-55.48-1.56-8.29-2-19.07-3.74-19.69-13.95-.28-4.69.4-10-4.37-12.58-1.7-.92-3.21,1.67-1.51,2.59Z"/>
      </g>
      <g>
        <path class="cls-8" d="M1354.1,781.93a181.6,181.6,0,0,0-127.62,31.75c-4.33,3.08-9,7.72-7.57,12.84a11.18,11.18,0,0,0,3.29,4.81c9.68,9.25,24,11.44,37.4,11.94a219.45,219.45,0,0,0,87.91-14.9c13.28-5.2,28-14.61,27.87-28.87-.08-11.3-10.26-20.47-21.19-23.32"/>
        <path class="cls-21" d="M1354.1,780.43a183.46,183.46,0,0,0-114.4,23,126.52,126.52,0,0,0-15.46,10.09c-3.5,2.78-7.41,6.76-7.07,11.64.71,10.34,16.73,15.82,25,17.63,12.8,2.82,26.45,2.54,39.45,1.71a222.21,222.21,0,0,0,41.95-6.74c12.32-3.22,25.29-7,36.27-13.68,9.17-5.56,17.9-14.41,17-26-.9-11.89-11.49-20.3-22.23-23.36a1.5,1.5,0,0,0-.8,2.89c10.34,2.95,20.78,11.48,20.05,23.24-.66,10.79-10.55,18.15-19.34,22.71-20.79,10.8-46.11,15.77-69.27,17.63a179.3,179.3,0,0,1-35-.13,60.56,60.56,0,0,1-16-3.86c-5.17-2.12-15.69-7.4-13.88-14.37,1.38-5.28,8.11-8.88,12.32-11.63q7.29-4.78,15-8.82a180.75,180.75,0,0,1,106.34-19c1.91.24,1.89-2.76,0-3Z"/>
      </g>
    </g>
    <g>
      <g>
        <path class="cls-8" d="M1424.63,646.47l-17.06,1c-8.45,47.19,7.6,99.58,27.09,147.82,4.33,10.7,8.84,21.35,13.78,31.83,3.8,8.05,8.2,16.41,15.15,21.57s17.12,5.51,20.63-1.43"/>
        <path class="cls-21" d="M1424.63,645l-17.06,1a1.53,1.53,0,0,0-1.45,1.1c-5.75,33.32,0,67.27,9.53,99.34,5.15,17.34,11.48,34.31,18.29,51.06,3.31,8.15,6.73,16.26,10.37,24.27,3.31,7.29,6.59,14.81,11.49,21.2,6.37,8.3,22.35,17.6,29.71,5.07a1.5,1.5,0,0,0-2.59-1.51c-5.4,9.2-17.53,2.78-22.78-3-6.21-6.83-9.89-15.84-13.64-24.15-8.38-18.56-16-37.57-22.55-56.84-12.48-36.52-21.61-76-14.94-114.64l-1.45,1.1,17.06-1c1.92-.11,1.93-3.11,0-3Z"/>
      </g>
      <g>
        <path class="cls-8" d="M1424.8,652.74q5.89,52.69,14.61,105.44c4.48,27.11,9.64,54.61,21,80.4,3.58,8.11,9.72,17.37,17.43,17.24,5.2-.09,8.74-4.63,11.26-9.18,14.83-26.85,12.69-63.48,3.53-97.06a288.57,288.57,0,0,0-45.17-93.51c-3.51-4.8-7.59-9.81-12.8-11.42s-11.17,2.41-9.66,8.07"/>
        <path class="cls-21" d="M1423.3,652.74q6.27,55.82,15.57,111.26c3,17.6,6.37,35.18,11.67,52.25a196.6,196.6,0,0,0,8.88,23.73c2.51,5.46,5.84,11.26,10.87,14.78,11.68,8.18,19.67-5.27,23.62-14.64,5.91-14,7.79-29.43,7.42-44.53-.79-32.44-11.05-64.69-24.9-93.81-8.17-17.18-17.92-34.08-29.65-49.09-3.7-4.73-9.25-10.76-15.94-9.79a8.45,8.45,0,0,0-7.29,10.21c.33,1.9,3.22,1.09,2.89-.8-1.1-6.42,6-7.5,10.19-5.18,3.5,1.91,6.18,5.26,8.55,8.38,4.45,5.84,8.52,12,12.42,18.22a290.85,290.85,0,0,1,19.91,37.63c11.57,26.38,20.12,55.27,20.81,84.23.32,13.32-1.1,26.82-5.62,39.41-2,5.55-4.52,12.15-8.79,16.35-7.27,7.16-14.94-.66-18.87-7.09-7.52-12.31-11.58-27.45-15.16-41.31-3.69-14.29-6.32-28.83-8.75-43.38q-8.86-53.21-14.86-106.84c-.21-1.9-3.22-1.92-3,0Z"/>
      </g>
    </g>
    <g>
      <g>
        <path class="cls-8" d="M1114.26,1053.69l14.53,9.11c37-26.11,57.34-69.63,72.23-112.39,3.3-9.49,6.42-19,9.07-28.74,2-7.45,3.79-15.45,1.41-22.8s-10.44-13.4-17.74-10.85"/>
        <path class="cls-21" d="M1113.5,1055l14.53,9.11a1.47,1.47,0,0,0,1.51,0c23.22-16.6,40.17-39.84,52.95-65.1a368.35,368.35,0,0,0,17-40q4.24-11.61,8-23.4c2.5-7.9,5.29-16,6.3-24.3.83-6.85,0-14.11-4.68-19.47-4-4.58-9.83-6.94-15.78-5.28a1.5,1.5,0,0,0,.8,2.89c8.52-2.38,15.34,5.29,16.62,13,1.34,8.13-1.42,16.46-3.68,24.2-4.07,13.93-8.84,27.69-14.12,41.2-9.93,25.46-22.39,50.55-40.46,71.27a145.68,145.68,0,0,1-15.49,15.35c-2.63,2.23-6.46,6.93-9.91,5.46-4.19-1.77-8.25-5.17-12.11-7.59-1.64-1-3.15,1.57-1.51,2.59Z"/>
      </g>
      <g>
        <path class="cls-8" d="M1118.12,1049.48q28.81-37.91,55.37-77.47c13.65-20.33,27-41.31,34.17-64.72,2.26-7.36,3.16-16.94-3.21-21.26-4.3-2.91-10.08-2-15-.41-29.22,9.13-50.86,34.36-64.81,61.62a210.07,210.07,0,0,0-22.84,87.12c-.2,5.15-.07,10.77,3.14,14.8s10.65,4.81,13,.23"/>
        <path class="cls-21" d="M1119.41,1050.23c21-27.66,41.27-55.92,60.34-84.94,8.85-13.48,17.27-27.32,23.64-42.17,4-9.34,11-23.53,5.84-33.74-5.77-11.52-21.07-5.5-29.81-1.55-12.12,5.47-22.82,13.81-31.87,23.49-19.69,21.07-32.58,48.45-40.08,76.07a211.7,211.7,0,0,0-5.44,26.87c-1.13,8.32-2.37,17.17-1.74,25.58.4,5.35,2.26,11.08,7.6,13.29,4.17,1.72,8.82.88,11.33-3,1.05-1.62-1.54-3.13-2.59-1.51-2.24,3.45-7.21,2.82-9.93.28s-3.27-6.49-3.47-9.85c-.42-6.91.49-14.14,1.31-21a208.54,208.54,0,0,1,8.94-40.3c7.74-23.6,19.52-46.72,36.71-64.87A100.63,100.63,0,0,1,1177.52,892c5.21-2.64,11.08-5.23,16.9-6.14,8.92-1.4,13.88,4.26,13.36,12.88-.34,5.7-2.47,11.26-4.46,16.55a178.94,178.94,0,0,1-9.48,20.76,386.23,386.23,0,0,1-20.65,33.66q-27,40.33-56.36,79c-1.17,1.54,1.44,3,2.59,1.51Z"/>
      </g>
    </g>
    <g>
      <path class="cls-22" d="M1129.1,972a1.73,1.73,0,0,0,0-.24V972Z"/>
      <path class="cls-22" d="M1129.06,971.37c0,.16,0,.44,0,.75,0-.32,0-.19,0-.56a1,1,0,0,1,0,.23c0-.08,0,.07,0-.14s0-.27,0-.05C1129.06,971.52,1129.06,971.43,1129.06,971.37Z"/>
      <path class="cls-22" d="M1128.53,970.86v0A.28.28,0,0,0,1128.53,970.86Z"/>
      <path class="cls-22" d="M1128.2,970.67a.44.44,0,0,0,0-.07A.51.51,0,0,0,1128.2,970.67Z"/>
      <path class="cls-22" d="M1128.14,970.31v0S1128.14,970.28,1128.14,970.31Z"/>
      <path class="cls-22" d="M1128.53,970.86v-.1C1128.52,970.86,1128.53,970.83,1128.53,970.86Z"/>
      <path class="cls-22" d="M1129,972.17s0,0,0-.09v.09Z"/>
      <path class="cls-22" d="M1128.68,970.59h0v0Z"/>
      <path class="cls-22" d="M1128.79,970.54s0,.27,0,.39c0-.12,0-.17,0-.19S1128.79,970.62,1128.79,970.54Z"/>
      <path class="cls-22" d="M1129,971v0Z"/>
      <path class="cls-22" d="M1128.6,970.53v-.1S1128.59,970.5,1128.6,970.53Z"/>
      <path class="cls-22" d="M1125.47,972.64v-.05A.41.41,0,0,0,1125.47,972.64Z"/>
      <path class="cls-22" d="M1125.34,971.25h0q0-.08,0-.16Z"/>
      <path class="cls-22" d="M1128,969.95h0S1128,969.93,1128,969.95Z"/>
      <path class="cls-22" d="M1127.09,970.16c0,.25,0,.32,0,.6C1127.09,970.65,1127.1,970.32,1127.09,970.16Z"/>
      <path class="cls-22" d="M1129,972.13h0S1129,972.15,1129,972.13Z"/>
      <path class="cls-22" d="M1127.09,970.76h0v0Z"/>
      <path class="cls-22" d="M1127.8,970.12s0,.09,0,.12S1127.8,970.18,1127.8,970.12Z"/>
      <path class="cls-22" d="M1128,970.52v0A.18.18,0,0,0,1128,970.52Z"/>
      <path class="cls-22" d="M1127.71,970.52s0-.06,0,0v0S1127.71,970.47,1127.71,970.52Z"/>
      <path class="cls-22" d="M1127.61,970.52v.06h0Z"/>
      <path class="cls-22" d="M1125.76,972.5c0-.08,0-.17,0-.25C1125.75,972.45,1125.74,972.52,1125.76,972.5Z"/>
      <path class="cls-22" d="M1129,972c0,.07,0,.11,0,.12v0S1129,972,1129,972Z"/>
      <path class="cls-22" d="M1127.71,972.73l0,0S1127.7,972.73,1127.71,972.73Z"/>
      <path class="cls-22" d="M1126.45,972.46v0S1126.44,972.5,1126.45,972.46Z"/>
      <path class="cls-22" d="M1127.64,972.73c0-.1,0-.16,0-.19s0,0,0,.07Z"/>
      <path class="cls-22" d="M1125.65,972.92s0-.36,0-.57a2.69,2.69,0,0,1,0,.46c0-.1,0-.44,0-.42s0,.08,0,.16c0-.29,0,0,0-.38,0,0,0,.06,0,.09,0-.19,0-.37,0-.51s0-.23,0,0a1.51,1.51,0,0,0,0,.17v-.1c0,.35,0,.12,0,.38,0-.11,0-.4,0-.3,0,.34,0,.11,0,.42l0-.13c0,.54,0,0,0,.54,0,.1,0-.17,0-.07,0-.19,0-.28,0-.47,0-.34,0,.85,0,.4,0-.23,0-.66,0-.43v.38s0-.55,0-.29,0,.13,0,.17c0,.3,0-.22,0-.22v.34c0-.05,0-.3.07-.36,0,.1,0,.21,0,.31,0-.17.06,0,.09.24v-.29a1.86,1.86,0,0,1,0,.19c0,.11,0-.19,0-.3a1.64,1.64,0,0,1,0,.26c0-.25.06-.54.08-.22v.09c0,.12,0-.6,0-.33v.05c0,.13.07-.14.1.3,0-.42,0,.19,0-.4,0,.29,0,.4,0,.59,0,0,0-.37,0-.43v.27s0-.14,0-.23,0,.21,0,.37l0-.26c0,.12,0,.17,0,.25,0-.31,0,.32,0,0,0-.07,0-.18,0-.25,0,.19,0,.19,0,.11v.21c0,.05.05-.1.08-.1a4.74,4.74,0,0,1,0-.5v.33c0-.2,0-.12,0-.37a4.67,4.67,0,0,1,0,.48v-.11c0,.1,0,.15,0,.27,0-.2,0,.33,0,0v.1s0-.11.06-.13c0-.28,0-.22,0-.45,0,.09,0,.31.05.29s0-.24,0-.41c0,.26,0,.23,0,.42,0,0,0-.05.06-.26s0-.15,0-.24a.89.89,0,0,1,0,.23v0c0-.38.08.75.1.21v0l0-.28s0,.19,0,.35c0-.43,0,.06.07-.22,0,.76.07-.05.09.43v-.18c0-.17,0,.1,0,.14,0-.14,0-.16,0-.26s.11.26.17.42,0-.92,0-.5v.33c0-.4.09,0,.13-.32,0,.08,0,.18,0,.17,0,.24,0,0,0-.18,0,0,0,.18,0,.28s0-.31,0-.07a.92.92,0,0,1,0,.1c0-.12,0,0,0-.25,0,.13,0-.12,0,0,0-.31,0,.15,0-.29,0,.45,0,.36,0,.15,0,.14,0,.14,0,.33a1,1,0,0,0,0-.32c0,.54,0-.44.05.26a4.06,4.06,0,0,1,.09-.51c0,.45,0,0,0,.52,0-.19,0-.57.07-.46a2.64,2.64,0,0,1,0,.27c0-.19.05,0,.08-.2,0,0,0,.09,0,.12s0,.07,0-.14v.06c0-.3,0-.62,0-.78,0,.59,0,.15,0,.89,0,0,0-.14,0-.27a2.2,2.2,0,0,1,0,.28c0-.11,0-.33,0-.33s0,.14,0,.25c0-.19,0-.39,0-.3a1.13,1.13,0,0,1,0,.14s0-.52.07-.33c0,.43,0,.14,0,.52v-.29s0-.27,0-.14v.15l0-.07v-.14c0-.19,0-.47,0-.37a1.93,1.93,0,0,1,0,.22h0c0-.12,0-.24,0-.15s0,.41,0,.49c0-.31,0-.09,0-.42,0,.08,0,.27,0,.31v-.25c0,.08,0,.12,0,.28s0-.47,0-.27c0,0,0,.06,0,.1s0-.16.06,0c0,.38,0,.09,0,.41,0-.07.05-.45.08-.36v0c0-.53,0,.26,0,0,0,0,0,.29,0,.24s0-.13.06-.3v.14c0,.12,0,.07,0,.13,0-.14,0-.11,0-.31,0,.78.07-.42.1.23v.12l0-.13c0-.23,0-.14,0-.32a1.27,1.27,0,0,1,0-.24,4.8,4.8,0,0,0,0,.5c0-.07,0-.15,0-.22,0,.41,0-.47,0-.19v.12c0-.06,0-.22,0-.19,0,.27,0,.12,0,.34,0,0,0-.51,0-.24,0,.07,0,.08,0,.15,0,.31,0,.23,0,.28h0l0,.14V972a4.51,4.51,0,0,1,0-.58c0,.43,0,.25,0,.55,0,.08,0,.18,0,.26,0-.24,0,.19,0-.16,0,.1,0,0,0,.25a2.81,2.81,0,0,0,0-.29c0-.33,0,.4.06-.05,0-.19,0-.52,0-.68,0,.16,0,.36,0,.36s0,.12,0,0c0,.09,0,.16,0,.27s0-.35,0-.21,0,.28,0,.39c0-.09,0-.27,0-.36,0,.17,0,.26,0,.37a2.43,2.43,0,0,0,0-.42v-.1s0,.23,0,.28c0,.21,0-.09,0-.19v-.06c0-.57,0,.09,0,.06v-.07c0-.11,0-.34,0-.4s0,.15,0-.08c0,0,0-.06,0-.07v.12a2,2,0,0,1,0-.23c0-.24,0,.31,0,0v0c0,.14,0,.31,0,.66v-.45a.7.7,0,0,1,0-.16c0,.21,0,.13,0,.33,0-.28,0,.13,0-.36,0,.23,0,.18,0,.34,0-.52,0,.09,0-.15a3.12,3.12,0,0,0,0-.37c0,.46,0-.1,0,0,0,.36,0,.15,0,.27a2.57,2.57,0,0,0,0-.33v-.06a1,1,0,0,1,0,.37c0-.22,0-.31,0-.4h0a1.78,1.78,0,0,1,0,.22v-.27s0,.32,0,.14c0,.26,0,.71,0,.88,0-.14,0-.38,0-.43s0,.12,0,.06v-.23c0-.1,0,.19,0,.17,0-.2,0-.14,0-.3s0,.08,0,0a2.45,2.45,0,0,1,0-.3c0,.11,0,.27,0,.29s0-.24,0-.34a2.45,2.45,0,0,0,0,.29s0-.14,0-.22a1.25,1.25,0,0,0,0,.35v0h0c0,.29,0-.17-.07,0v-.1a1.38,1.38,0,0,0,0,.28s0-.18,0-.3c0,.07,0,.19,0,0s0-.15,0-.13,0-.24,0,0c0-.25,0-.32,0-.24v.18s0,0,0,0v-.33c0-.4-.05.69-.07,0,0,.23,0,.16,0,.44,0,0,0-.52,0-.52,0-.18,0,.49,0,.36,0,.12,0,.44,0,.55a5.45,5.45,0,0,1,0-.59s0,0,0,.07a1.4,1.4,0,0,0,0-.22v.12a1.94,1.94,0,0,1,0-.3,1.21,1.21,0,0,0,0,.26c0-.17,0,0,0-.12,0,.07,0,.2,0,.2s0,.23,0,.28c0-.18,0-.43,0-.28a3.81,3.81,0,0,1,0-.41c0,.23,0-.15,0-.19v-.1c0,.06,0,.06,0,.05v.24a.73.73,0,0,1,0-.14c0,.16,0,.39,0,.61,0-.12,0,.13,0-.19,0,.11,0-.32,0-.37s0,0,0,0,0-.07,0-.08c0-.28,0,.36,0,.35a1.81,1.81,0,0,0,0-.3,4.12,4.12,0,0,1,0,.43c0-.14,0,.1,0,.09v.06a.74.74,0,0,1,0,.21c0-.14,0-.1,0-.16,0,.31,0-.32,0-.11,0-.12,0-.33,0-.42,0,.23,0-.24,0-.05a3.51,3.51,0,0,1,0,.41l0-.17,0,.35s0-.15,0-.11a3.09,3.09,0,0,0,0,.33c0-.36,0,.21,0,0v-.59c0-.26,0,.3-.06.15v.1c0,.23,0,0,0,.13,0-.2,0-.27,0-.39a3.48,3.48,0,0,0,0,.38v-.26c0-.11,0,.56,0,.5s0-.35,0-.51c0,0,0,0,0,.1,0-.12,0,.27,0,.08a2.74,2.74,0,0,1,0,.28s0-.1,0-.1,0,.13,0,.35c0-.62-.06,0-.07-.48a.51.51,0,0,1,0,.14c0-.06,0-.1,0-.08,0-.18,0,.57,0,.36s0-.17,0-.29c0-.65,0,.09,0-.29v0c0-.22,0,.25,0,.2s0-.06,0-.1a3.14,3.14,0,0,1,0,.53c0-.25,0-.13,0-.39,0,0,0,.41,0,.49,0-.14,0-.26,0-.54h0c0-.36,0,0,0,0v-.16c0,.05,0,.44,0,.42v.12c0,.39,0-.22,0,.07v-.39c0,.09,0,.38,0,.46,0-.29,0-.44,0-.62,0,0,0,0,0,.22,0,0,0-.14,0-.07a1.56,1.56,0,0,1,0,.46,7.71,7.71,0,0,0-.05-.79c0,.28-.06-.12-.09-.08,0,.6,0,0,0,.63,0,0,0,0,0,0l0-.37c0-.18,0-.13,0-.27s0-.26,0-.42c0,.22,0,.31,0,.23v.28c0,.33,0-.51,0-.19v-.19a1.24,1.24,0,0,0-.06.49c0-.07,0-.24,0-.28s-.06.52-.09.22v-.15s0,.28,0,.13,0-.15,0-.16,0,.26,0,.17v-.17c0-.2,0,.41-.07.51a4,4,0,0,0,0-.65v-.06c0-.05-.06.36-.09.54,0-.48-.06-.2-.09-.47,0,.08,0,.34,0,.39s0,.31,0-.1h0c0-.4,0-.29,0-.3v.53c0-.77-.08.28-.1-.41,0,.13,0,.13,0,.26V970c0-.07,0-.11-.06,0v-.2s0,.82,0,.83v-.42s0-.36-.07,0c0-.06,0-.18,0-.2s0-.29,0,.29c0-.38,0,0,0,.13v-.28a5.25,5.25,0,0,1,0,.55s0-.22,0-.15c0-.15,0,.26,0,.12v-.18s0,.07,0,.28,0-.07,0-.32c0,.15,0,.36,0,.29s0-.15,0-.18c0-.19,0,.32,0,.05,0-.09,0-.14,0-.17a0,0,0,0,1,0,0c0-.26,0-.3,0-.66,0,.19,0,.61,0,.49s0,0,0-.09v0s0,0,0,0a.33.33,0,0,0,0-.08c0-.21,0-.11,0-.12,0,.28,0,.24,0,.47a.1.1,0,0,1,0,0v0l0,0c0,.14,0,.26,0,.11,0,.18,0,.37,0,.45,0-.39,0-.6,0-.85a2.53,2.53,0,0,0-.06.63,1.52,1.52,0,0,1,0-.23c0-.05,0,0,0-.12a1.67,1.67,0,0,0,0,.42c0-.17,0-.34,0-.28v-.11c0-.59-.07.94-.11.18,0,0,0,.07,0,.13-.05-.33-.1.31-.15-.22,0-.11,0,.13,0,.31v0c0,.25,0-.74-.06-.26v.2s0,.12,0-.11c0,0,0,.21,0,.11v-.16l0,.27c0-.11,0-.63,0-.66s0,.46,0,.57a1.82,1.82,0,0,1,0,.26v.08c0,.47,0,.94,0,1.27l0-.28v.23h0c0,.21,0,0,0-.1,0,.12,0,.2,0,.25l0-.44c0,.18,0,.36,0,.46,0-.21,0-.41,0-.54,0,.21,0,.38,0,.2,0,.12,0,.2,0,.25a2.48,2.48,0,0,0,0-.31c0,.26,0-.07,0,.37,0-.11,0-.35,0-.36,0,.53,0,0,0,.6a2.23,2.23,0,0,1,.05-.47.56.56,0,0,1,0,.09s0,.18,0,.27c0-.39,0-.48,0-.72,0,.38,0,.46,0,.82,0-.32,0-.32,0-.58,0,.23,0,.11,0,.44a3.15,3.15,0,0,1,0-.38c0,.24,0,.46,0,.31A3.22,3.22,0,0,1,1125.65,972.92Zm.34-.85h0v0Zm0,0h0a1.9,1.9,0,0,1,0-.19C1126,971.93,1126,972,1126,972.06Zm-.06-1.95s0,0,0,.07v.07C1126,970.2,1126,970.15,1126,970.12Z"/>
      <path class="cls-22" d="M1126,970.49v0Z"/>
      <path class="cls-22" d="M1128.53,970.9h0v0Z"/>
      <polygon class="cls-22" points="1126.41 972.6 1126.41 972.53 1126.41 972.59 1126.41 972.6"/>
      <path class="cls-22" d="M1128.69,971.87s0,.05,0,.07S1128.69,971.9,1128.69,971.87Z"/>
      <path class="cls-22" d="M1128.76,971.93v.1C1128.76,972,1128.76,971.95,1128.76,971.93Z"/>
      <path class="cls-22" d="M1128.81,972.07s0-.09,0-.12h0Z"/>
      <path class="cls-22" d="M1128,972.4h0C1128,972.47,1128,972.45,1128,972.4Z"/>
      <path class="cls-22" d="M1128.23,971.74c0,.05,0,.1,0,.13S1128.23,971.9,1128.23,971.74Z"/>
      <polygon class="cls-22" points="1127.71 972.74 1127.71 972.73 1127.7 972.73 1127.71 972.74"/>
      <path class="cls-22" d="M1128.21,971.87c0,.06,0,0,0,0S1128.21,971.83,1128.21,971.87Z"/>
      <path class="cls-22" d="M1129,972.2h0v0Z"/>
      <path class="cls-22" d="M1129,972.16v0S1129,972.13,1129,972.16Z"/>
      <path class="cls-22" d="M1129,972.06v.07S1129,972.14,1129,972.06Z"/>
      <path class="cls-22" d="M1129,972.07v.1S1129,972.11,1129,972.07Z"/>
      <path class="cls-22" d="M1128.95,972.1s0,.22,0,.15v-.08C1129,972.32,1129,971.92,1128.95,972.1Z"/>
      <path class="cls-22" d="M1128.86,970.84l0,.08a2.17,2.17,0,0,1,0-.28C1128.86,970.31,1128.88,970.88,1128.86,970.84Z"/>
      <path class="cls-22" d="M1128.8,970.68a1.76,1.76,0,0,0,0-.22A1.22,1.22,0,0,0,1128.8,970.68Z"/>
      <path class="cls-22" d="M1128.41,970.68v-.26S1128.41,970.52,1128.41,970.68Z"/>
      <polygon class="cls-22" points="1128.34 972 1128.34 972.16 1128.35 971.92 1128.34 972"/>
      <polygon class="cls-22" points="1128.29 970.18 1128.3 970.14 1128.28 970.23 1128.29 970.18"/>
      <path class="cls-22" d="M1127.63,970.27v.31A2.06,2.06,0,0,0,1127.63,970.27Z"/>
      <path class="cls-22" d="M1127.34,970.59c0-.16,0-.26,0-.1S1127.34,970.63,1127.34,970.59Z"/>
      <polygon class="cls-22" points="1126.49 970.08 1126.49 969.97 1126.48 970.06 1126.49 970.08"/>
    </g>
    <g>
      <path class="cls-11" d="M1577.31,928.61a466.93,466.93,0,0,0-216,11.5c-5.78,1.71-12.39,4.41-13.84,10.26-.84,3.4.39,7,2,10.07,10.45,19.73,35.1,26.41,57.17,29.75,77.61,11.73,156.8,6.45,234.74-2.88,7-.84,14.29-1.78,20.52-5.17s11.34-9.83,11-16.92c-.42-9.85-10.28-16.3-19.24-20.43a232.6,232.6,0,0,0-102.3-21.27"/>
      <path d="M1577.4,928.25a469.89,469.89,0,0,0-155.24-2.14q-19.82,3.05-39.33,7.8-9.06,2.21-18,4.79c-4.52,1.3-9.44,2.5-13.27,5.39-16,12.07,10.54,32.34,20.75,37.12,19.45,9.09,42.25,10.88,63.33,13a702.49,702.49,0,0,0,83.45,3c27.61-.56,55.17-2.46,82.65-5.12,13.84-1.34,27.68-2.79,41.47-4.54,9.7-1.23,20.37-3.21,26.58-11.56,15.74-21.16-20.36-34-34.41-39.06a235.29,235.29,0,0,0-83.91-13.7.38.38,0,0,0,0,.75,234.82,234.82,0,0,1,69.89,9.19,211.58,211.58,0,0,1,33.51,12.63c9.3,4.53,21,12.88,16.95,24.89-4.4,12.89-19.76,15.05-31.34,16.44q-18.38,2.2-36.8,4c-24.25,2.38-48.56,4.18-72.92,5-24.61.83-49.26.66-73.84-.92-22.48-1.44-45.72-3.14-67.59-8.78-9-2.32-17.91-5.59-25.61-10.9-7.53-5.2-22.18-19.61-13.59-29.13,3.31-3.66,8.54-5.06,13.1-6.4q8.95-2.63,18-4.86,17.2-4.27,34.69-7.21a468.78,468.78,0,0,1,161.29,1.1c.47.09.67-.64.2-.72Z"/>
    </g>
    <text class="cls-23" transform="translate(1390.06 973.02)">H<tspan class="cls-24" x="20.44" y="0">a</tspan><tspan class="cls-25" x="35.59" y="0">v</tspan><tspan x="49.31" y="0">e a nice d</tspan><tspan class="cls-24" x="167.55" y="0">a</tspan><tspan x="182.71" y="0">y!</tspan></text>
  </g>
  <g id="here_s_your_change" data-name="here&apos;s your change">
    <g>
      <path class="cls-11" d="M1151.94,661.74a466.93,466.93,0,0,0-216,11.5c-5.78,1.71-12.39,4.41-13.84,10.26-.84,3.4.39,7,2,10.07,10.45,19.73,35.1,26.41,57.17,29.75,77.61,11.73,156.8,6.45,234.74-2.88,7-.84,14.29-1.78,20.52-5.17s11.34-9.83,11-16.92c-.42-9.85-10.28-16.3-19.24-20.43a232.6,232.6,0,0,0-102.3-21.27"/>
      <path d="M1152,661.38a469.89,469.89,0,0,0-155.24-2.14Q977,662.3,957.47,667q-9.06,2.21-18,4.79c-4.52,1.3-9.44,2.5-13.27,5.39-16,12.07,10.54,32.34,20.75,37.12,19.45,9.09,42.25,10.88,63.33,13a702.49,702.49,0,0,0,83.45,3c27.61-.56,55.17-2.46,82.65-5.12,13.84-1.34,27.68-2.79,41.47-4.54,9.7-1.23,20.37-3.21,26.58-11.56C1260.14,687.89,1224,675,1210,670a235.29,235.29,0,0,0-83.91-13.7.38.38,0,0,0,0,.75,234.82,234.82,0,0,1,69.89,9.19,211.58,211.58,0,0,1,33.51,12.63c9.3,4.53,21,12.88,16.95,24.89-4.4,12.89-19.76,15.05-31.34,16.44q-18.38,2.2-36.8,4c-24.25,2.38-48.56,4.18-72.92,5-24.61.83-49.26.66-73.84-.92-22.48-1.44-45.72-3.14-67.59-8.78-9-2.32-17.91-5.59-25.61-10.9-7.53-5.2-22.18-19.61-13.59-29.13,3.31-3.66,8.54-5.06,13.1-6.4q8.95-2.63,18-4.86,17.2-4.27,34.69-7.21a468.78,468.78,0,0,1,161.29,1.1c.47.09.67-.64.2-.72Z"/>
    </g>
    <text class="cls-23" transform="translate(964.69 706.16)">He<tspan class="cls-26" x="35.11" y="0">r</tspan><tspan class="cls-27" x="44.58" y="0">e</tspan><tspan class="cls-28" x="58.11" y="0">’</tspan><tspan x="61.07" y="0">s </tspan><tspan class="cls-24" x="82.52" y="0">y</tspan><tspan x="96.21" y="0">our change</tspan></text>
  </g>
</svg>
