<svg xmlns="http://www.w3.org/2000/svg" xmlns:xlink="http://www.w3.org/1999/xlink" viewBox="0 0 1920 1080">
  <defs>
    <style>
      .cls-1, .cls-15 {
        fill: none;
      }

      .cls-2 {
        fill: #b82025;
      }

      .cls-3 {
        fill: #e6e6e6;
      }

      .cls-4 {
        fill: #b3b3b3;
      }

      .cls-5 {
        fill: #f2f2f2;
      }

      .cls-6 {
        fill: #999;
      }

      .cls-7 {
        fill: url(#New_Pattern_Swatch_1);
      }

      .cls-8 {
        fill: #7c7c7c;
      }

      .cls-9 {
        fill: #fff;
      }

      .cls-10 {
        fill: #ccc;
      }

      .cls-11 {
        fill: #333;
      }

      .cls-12 {
        font-size: 25.25px;
        font-family: RobotoCondensed-Light, Roboto Condensed;
      }

      .cls-13 {
        fill: #4d4d4d;
      }

      .cls-14 {
        letter-spacing: -0.01em;
      }

      .cls-15 {
        stroke: #000;
        stroke-miterlimit: 10;
        stroke-width: 0.25px;
      }
    </style>
    <pattern id="New_Pattern_Swatch_1" data-name="New Pattern Swatch 1" width="52" height="52" patternTransform="matrix(0.32, 0.02, -0.02, 0.33, -19.97, 630.01)" patternUnits="userSpaceOnUse" viewBox="0 0 52 52">
      <rect class="cls-1" width="52" height="52"/>
      <rect class="cls-2" width="52" height="52"/>
    </pattern>
  </defs>
  <title>20160321_frame3</title>
  <g id="building">
    <rect class="cls-3" x="1347" width="573" height="1027"/>
    <polygon class="cls-4" points="1920 644 1299 644 1349 513 1920 513 1920 644"/>
    <rect class="cls-5" x="1403" y="320" width="101" height="159"/>
    <rect class="cls-5" x="1543" y="320" width="101" height="159"/>
    <rect class="cls-5" x="1543" y="835" width="192" height="192"/>
    <rect class="cls-5" x="1683" y="320" width="101" height="159"/>
    <rect class="cls-5" x="1784" y="836" width="136" height="136"/>
    <rect class="cls-5" x="1364" y="836" width="136" height="136"/>
    <rect class="cls-5" x="1819" y="320" width="101" height="159"/>
    <rect class="cls-5" x="1403" y="118" width="101" height="159"/>
    <rect class="cls-5" x="1543" y="118" width="101" height="159"/>
    <rect class="cls-5" x="1683" y="118" width="101" height="159"/>
    <rect class="cls-5" x="1819" y="118" width="101" height="159"/>
    <polyline class="cls-5" points="1504 0 1504 79 1403 79 1403 0"/>
    <polyline class="cls-5" points="1644 -0.5 1644 79 1543 79 1543 -0.5"/>
    <polyline class="cls-5" points="1784 -0.5 1784 79 1683 79 1683 -0.5"/>
    <polyline class="cls-5" points="1920 0 1920 79 1819 79 1819 -0.5"/>
  </g>
  <g id="wall">
    <rect class="cls-5" y="0.5" width="1280" height="1028"/>
  </g>
  <g id="ground">
    <rect class="cls-6" y="1027" width="1920" height="53"/>
  </g>
  <g id="bystanders">
    <path class="cls-4" d="M1149.16,925.72a8.56,8.56,0,0,0-3.09.69c3.28-2.49,5.17-7.81,4.45-13.69-.94-7.71-6-13.44-11.27-12.8s-8.82,7.41-7.88,15.13,6,13.44,11.27,12.8a6.76,6.76,0,0,0,1.76-.47c-13.88,10.32-4.05,66.49-15.4,98.29a116.62,116.62,0,0,0,24.19-27c11.14,7.91,14.8,23.64,22.81,29.56C1175,1004.62,1169.92,924.93,1149.16,925.72Z"/>
    <path class="cls-4" d="M828.16,925.72a8.56,8.56,0,0,0-3.09.69c3.28-2.49,5.17-7.81,4.45-13.69-.94-7.71-6-13.44-11.27-12.8s-8.82,7.41-7.88,15.13,6,13.44,11.27,12.8a6.76,6.76,0,0,0,1.76-.47c-13.88,10.32-4.05,66.49-15.4,98.29a116.62,116.62,0,0,0,24.19-27c11.14,7.91,14.8,23.64,22.81,29.56C854,1004.62,848.92,924.93,828.16,925.72Z"/>
    <path class="cls-4" d="M195.16,925.72a8.56,8.56,0,0,0-3.09.69c3.28-2.49,5.17-7.81,4.45-13.69-.94-7.71-6-13.44-11.27-12.8s-8.82,7.41-7.88,15.13,6,13.44,11.27,12.8a6.76,6.76,0,0,0,1.76-.47c-13.88,10.32-4.05,66.49-15.4,98.29a116.62,116.62,0,0,0,24.19-27c11.14,7.91,14.8,23.64,22.81,29.56C221,1004.62,215.92,924.93,195.16,925.72Z"/>
    <path class="cls-4" d="M282.84,939.72a8.56,8.56,0,0,1,3.09.69c-3.28-2.49-5.17-7.81-4.45-13.69.94-7.71,6-13.44,11.27-12.8s8.82,7.41,7.88,15.13-6,13.44-11.27,12.8a6.76,6.76,0,0,1-1.76-.47c13.88,10.32,4.05,66.49,15.4,98.29a116.62,116.62,0,0,1-24.19-27c-11.14,7.91-14.8,23.64-22.81,29.56C257,1018.62,262.08,938.93,282.84,939.72Z"/>
    <path class="cls-4" d="M1015.84,939.72a8.56,8.56,0,0,1,3.09.69c-3.28-2.49-5.17-7.81-4.45-13.69.94-7.71,6-13.44,11.27-12.8s8.82,7.41,7.88,15.13-6,13.44-11.27,12.8a6.76,6.76,0,0,1-1.76-.47c13.88,10.32,4.05,66.49,15.4,98.29a116.62,116.62,0,0,1-24.19-27c-11.14,7.91-14.8,23.64-22.81,29.56C990,1018.62,995.08,938.93,1015.84,939.72Z"/>
    <path class="cls-4" d="M1215.84,939.72a8.56,8.56,0,0,1,3.09.69c-3.28-2.49-5.17-7.81-4.45-13.69.94-7.71,6-13.44,11.27-12.8s8.82,7.41,7.88,15.13-6,13.44-11.27,12.8a6.76,6.76,0,0,1-1.76-.47c13.88,10.32,4.05,66.49,15.4,98.29a116.62,116.62,0,0,1-24.19-27c-11.14,7.91-14.8,23.64-22.81,29.56C1190,1018.62,1195.08,938.93,1215.84,939.72Z"/>
    <path class="cls-4" d="M1371.84,939.72a8.56,8.56,0,0,1,3.09.69c-3.28-2.49-5.17-7.81-4.45-13.69.94-7.71,6-13.44,11.27-12.8s8.82,7.41,7.88,15.13-6,13.44-11.27,12.8a6.76,6.76,0,0,1-1.76-.47c13.88,10.32,4.05,66.49,15.4,98.29a116.62,116.62,0,0,1-24.19-27c-11.14,7.91-14.8,23.64-22.81,29.56C1346,1018.62,1351.08,938.93,1371.84,939.72Z"/>
    <path class="cls-4" d="M1416.84,924.72a8.56,8.56,0,0,1,3.09.69c-3.28-2.49-5.17-7.81-4.45-13.69.94-7.71,6-13.44,11.27-12.8s8.82,7.41,7.88,15.13-6,13.44-11.27,12.8a6.76,6.76,0,0,1-1.76-.47c13.88,10.32,4.05,66.49,15.4,98.29a116.62,116.62,0,0,1-24.19-27c-11.14,7.91-14.8,23.64-22.81,29.56C1391,1003.62,1396.08,923.93,1416.84,924.72Z"/>
    <path class="cls-4" d="M1580.84,924.72a8.56,8.56,0,0,1,3.09.69c-3.28-2.49-5.17-7.81-4.45-13.69.94-7.71,6-13.44,11.27-12.8s8.82,7.41,7.88,15.13-6,13.44-11.27,12.8a6.76,6.76,0,0,1-1.76-.47c13.88,10.32,4.05,66.49,15.4,98.29a116.62,116.62,0,0,1-24.19-27c-11.14,7.91-14.8,23.64-22.81,29.56C1555,1003.62,1560.08,923.93,1580.84,924.72Z"/>
  </g>
  <g id="adama">
    <g>
      <g>
        <path class="cls-7" d="M508.54,922.42l2.78,15.21a18.85,18.85,0,0,1,6.88.34,124,124,0,0,1,2.67-15.31,26.64,26.64,0,0,0-6.39.72,12.35,12.35,0,0,1-3.05.52,3.24,3.24,0,0,1-2.7-1.31"/>
        <path class="cls-8" d="M508.18,922.52,511,937.73a.37.37,0,0,0,.36.28,21.75,21.75,0,0,1,6.78.33.38.38,0,0,0,.47-.36,133.23,133.23,0,0,1,2.66-15.21.38.38,0,0,0-.36-.47,30.74,30.74,0,0,0-4.38.32c-2.38.37-5.5,1.93-7.49-.28-.32-.36-.85.17-.53.53,2,2.21,4.62,1.15,7.16.66.68-.13,3.63-.91,4.16-.47.78.65.23,1.61.05,2.43q-.75,3.51-1.3,7.06c-.16,1.07-.08,4.47-1.38,4.84a24,24,0,0,0-2.39-.27c-1.15-.06-2.53.4-3.31-.75-.4-.6-.51-2.79-.64-3.51l-.64-3.51-1.28-7c-.09-.47-.81-.27-.72.2Z"/>
      </g>
      <g>
        <path class="cls-9" d="M480.15,923.69a39.13,39.13,0,0,1,17.06,17.52l6.77-9.29c1.47-2,3.11-4.15,5.51-4.84a5.71,5.71,0,0,1,4.43.57,2.07,2.07,0,0,1,.85.82,1.85,1.85,0,0,1-.7,2.11c-.62.5-2.77-1-3.48-.66s.4,3.72,0,4.64c-.86,2-3.11-.08-4,1.66-2,3.93-4,9.85-6.64,13.38-.49.66-1.12,1.37-1.93,1.33a2.58,2.58,0,0,1-1.51-.83Q489,943.26,481.83,936"/>
        <path class="cls-8" d="M480,924a40.28,40.28,0,0,1,16.93,17.39.38.38,0,0,0,.65,0c2.26-3.09,4.46-6.24,6.77-9.29l1.83-2.3q2.67-3.91,6.33.14c-.34.05-1.43-.38-1.87-.39a.38.38,0,0,0-.32.19c-.39.67-.23,1.06-.26,1.85-.07,2.24.46,2.23-1.92,3.49s-2.69,2.85-3.91,5.62c-.84,1.91-1.67,3.83-2.66,5.67-.9,1.67-2,4.16-4.72,3.46-.81-.21-2.11-1.92-2.74-2.51q-6.13-5.67-12-11.63c-.34-.34-.87.19-.53.53q3.91,4,7.92,7.82c1.82,1.74,5.17,6.12,7.52,6.9,2.77.92,4-2.06,5.16-4.19,1.42-2.64,2.29-6.85,4.18-9.11,1.25-1.5,3.49-1.27,4.51-2.82.37-.57-.12-1.34.1-1.88l-.25-1.84a2.26,2.26,0,0,1,2.56-.11c.25-.08.7.11.91-.06,1.54-1.24,1.21-2.48-.06-3.62-3.15-2.81-7.56.78-9.48,3.11s-3.33,5.36-5.48,7.48-1.4,2-3.08.36c-1-1-1.71-2.69-2.61-3.86a40.88,40.88,0,0,0-13.12-11.05c-.42-.23-.8.42-.38.65Z"/>
      </g>
      <g>
        <path class="cls-10" d="M443.69,975.64c-.61-9.43-1-24.13,1.74-35.44.82-3.4-4.05-7.28-4.05-7.28s6.19-7.65,8.61-9.27c3.17-2.12,9.93-3.48,14.56-4.45,3.14-.66,2.45-1.39,9.89.71,3.34.94,11,6.73,11,6.73s-2.69,8.55-2.3,11.34c2.37,17.3,0,40.63-2,40.58-7.88-.2-15.93,2-23.54.14-7.35-1.79-5-.4-13.91-3"/>
        <path class="cls-8" d="M444.07,975.64a168.93,168.93,0,0,1-.11-22.77c.31-4.24,1.48-8.39,1.83-12.57a7,7,0,0,0-1.76-5.2,20.45,20.45,0,0,1-1.63-1.76c-.64-1.11-.58.11-.46-.53.33-1.69,3.86-4.56,5-5.77,4.91-5.25,11.67-6.16,18.42-7.65,5.45-1.2,10.66,1.26,15.16,4.24.93.61,4.14,2.15,4.61,3.25,0,0-1.43,4.5-1.63,5.36-1.37,5.93,0,11.81.17,17.84a137.18,137.18,0,0,1-.87,20.77c-.3,2.38-.29,6.26-2.49,7.19-2,.85-5.22.34-7.39.52-2.72.23-5.46.51-8.19.5-6.72,0-14.43-1.89-20.94-3.78a.38.38,0,0,0-.2.72c7.89,2.29,16.56,4.16,24.76,3.67,3-.18,6.08-.57,9.14-.7,1.12,0,3.08.43,4-.15s1.18-2.69,1.39-3.67c1.71-8.12,1.77-16.82,1.54-25.08-.12-4.48-1.16-9.16-.92-13.61.18-3.26,1.32-6.63,2.28-9.74a.39.39,0,0,0-.17-.42c-5.83-4.38-12.82-9.36-20.45-7.64-5.24,1.18-11.47,1.76-15.9,5.06-3.13,2.33-5.71,5.92-8.15,8.93a.38.38,0,0,0,0,.53c3.51,2.9,4,5.45,3.31,9.94-.51,3.24-1,6.47-1.21,9.75a168.93,168.93,0,0,0,.11,22.77c0,.48.78.48.75,0Z"/>
      </g>
      <g>
        <g>
          <path class="cls-9" d="M468.32,885.06c-3.53-1.69-8-.44-10.84,2.2-10,9.16-11.14,32.39,4.44,36.79a15,15,0,0,0,13.39-3.21,21.19,21.19,0,0,0,6.84-12.27,23.09,23.09,0,0,0-2.42-15.91,18.09,18.09,0,0,0-13.11-8.94"/>
          <path class="cls-8" d="M468.42,884.7c-9.71-3.57-16.31,7-18.06,15.1-1.72,7.93-.31,17.74,6.94,22.55,10.1,6.71,21.55-1,24.64-11.36,3.52-11.83-2.33-25.45-15.2-27.62-.47-.08-.68.64-.2.72,12.12,2,17.88,14.64,14.91,25.94s-16.53,19.35-26,9.79c-4.89-4.92-5.71-12.77-4.42-19.28,1.53-7.78,7.63-18.64,17.25-15.11.45.17.65-.56.2-.72Z"/>
        </g>
        <path class="cls-8" d="M462.29,903.72,462,904a.38.38,0,0,0,.53.53l.29-.29a.38.38,0,0,0-.53-.53Z"/>
        <path class="cls-8" d="M462.26,903.82c-.3-.61-1.48-.63-1.55.16s.9,1.22,1.51,1a1,1,0,0,0,.17-1.75.76.76,0,0,0-1.2.92.37.37,0,0,0,.32.19,1.17,1.17,0,0,0,1.08-1.55c-.17-.45-.89-.26-.72.2a.42.42,0,0,1-.36.6l.32.19c-.06-.13.18.15.2.22s0,.26-.14.3a.42.42,0,0,1-.34-.11c-.18-.13,0,0,.06,0,.21.43.86.05.65-.38Z"/>
        <path class="cls-8" d="M474.48,902.2c-.57-.13-1.33,0-1.36.71a1.23,1.23,0,0,0,.84,1.19c.62.19.94-.24.93-.82a1.55,1.55,0,0,0-.9-1.4.39.39,0,0,0-.51.13,1.16,1.16,0,0,0,.9,1.75c.48,0,.48-.71,0-.75a.41.41,0,0,1-.25-.63l-.51.13a.81.81,0,0,1,.47,1l.22-.17c-.34,0-.48-.37-.39-.61l-.17.22a.68.68,0,0,1,.53-.08c.47.11.67-.62.2-.72Z"/>
        <path class="cls-8" d="M470.71,911.92c-2.46-.37-4.9-.83-7.38-1-.27,0-.4.25-.36.47.31,2,1.3,4.3,3.55,4.72a4.46,4.46,0,0,0,5-3.36.38.38,0,0,0-.72-.2c-.56,2.1-3,3.65-5.06,2.52-1.37-.75-1.87-2.44-2.09-3.87l-.36.47c2.41.18,4.79.63,7.18,1,.47.07.68-.65.2-.72Z"/>
        <g>
          <path class="cls-9" d="M451.88,887.18a27.3,27.3,0,0,0-2.39,20.11L451,903c.07-.21.17-.45.39-.52s.6.26.74.57a30.94,30.94,0,0,1,1.35,3.36l.69-3.14a3.1,3.1,0,0,1,1.32,1.3A60.76,60.76,0,0,0,456.52,892"/>
          <path class="cls-8" d="M451.56,887a28.67,28.67,0,0,0-2.43,20.4.38.38,0,0,0,.72,0c.34-1,.55-2.89,1.45-3.47q.66-1.47.92.43a20.19,20.19,0,0,1,.86,2.2c.12.32.64.39.72,0q-.34-1.91,1.33-1.75c.17.23.62.26.69-.09A68.48,68.48,0,0,0,456.89,892a.38.38,0,0,0-.75,0,64.44,64.44,0,0,1-.34,7.76c-.19,1.67.47,4.68-1.48,3.27a.38.38,0,0,0-.55.22c-.72,3.25-.16.94-1.36-.31-.48-.5-.27-.54-1-.74a.39.39,0,0,0-.42.17c-.54.73-.85,3.2-1.41,3.44-.26.11-.68-4.77-.68-5.53a27.79,27.79,0,0,1,3.26-12.87c.22-.43-.43-.81-.65-.38Z"/>
        </g>
        <path class="cls-10" d="M453,889.94a.38.38,0,0,0,0-.75.38.38,0,0,0,0,.75Z"/>
        <g>
          <path class="cls-9" d="M453.7,886.67c-.24,1.52.68,3,1.55,4.22a2.25,2.25,0,0,0,.87.87,3,3,0,0,0,1.06.14c2,.09,3.63,1.4,5.43,2.2a20.87,20.87,0,0,0,5.06,1.3,34.87,34.87,0,0,0,9.05.65,12.67,12.67,0,0,0,8.13-3.64,15.2,15.2,0,0,1-8.63-1.81,18,18,0,0,0,9.83-.65l.43-.62c-2.21.86-4.66-.57-6.25-2.33s-2.79-3.92-4.77-5.22c-2.49-1.64-5.7-1.58-8.68-1.34a23.08,23.08,0,0,0-7.78,1.69,9.24,9.24,0,0,0-5.25,5.7"/>
          <path class="cls-8" d="M453.33,886.67c.13,1.92.76,4.37,2.61,5.41.57.32,4.55,1.4,5.16,1.67a24.51,24.51,0,0,0,4.76,1.69c6.56,1.52,14,2.07,19.27-2.78a.38.38,0,0,0-.27-.64c-1.1,0-6.35.28-7.09-.8.43.64,4.41,0,5.07-.09,1.6-.25,3.05-.31,4-1.63.2-.29-.13-.61-.42-.55-5.59,1.06-7-5.1-10.73-7.51-2.64-1.69-5.87-1.62-8.87-1.39-5.6.43-11.28,1.95-13.39,7.66-.17.45.56.65.72.2,2.14-5.79,8.69-7.15,14.17-7.21,5.3-.06,7.92,2.26,11.22,6,1.73,2,3.18,2.5,5.53,3.23.36.11.66-.58.9-.5a11.3,11.3,0,0,1-4.76,1.14,17.6,17.6,0,0,1-4.86-.35c-.38-.06-.7.48-.29.69,1.91.93,3.91,1.1,5.84,1.83q2.38-.43,1,.65a4.65,4.65,0,0,1-3.22,1.71,20.49,20.49,0,0,1-6.52.61c-4.94-.17-8.5-1.58-13-3.3-3-1.17-5.78-1.53-6.07-5.73,0-.48-.78-.48-.75,0Z"/>
        </g>
        <g>
          <path class="cls-9" d="M448.12,906.4a1.47,1.47,0,0,0-1.45.88,2.71,2.71,0,0,0-.1,1.77A3.56,3.56,0,0,0,448,911.2a2.36,2.36,0,0,0,2.48.15"/>
          <path class="cls-8" d="M448.12,906c-3.75-.1-1.63,7.73,2.5,5.65.43-.22.05-.86-.38-.65-3.07,1.54-4.5-4.31-2.13-4.25a.38.38,0,0,0,0-.75Z"/>
        </g>
        <g>
          <path class="cls-9" d="M483.36,902.47a2.24,2.24,0,0,1,3.08,1.33,3.33,3.33,0,0,1-1.18,3.43,4.15,4.15,0,0,1-2.28,1"/>
          <path class="cls-8" d="M483.55,902.8c1.59-.8,2.93,1,2.55,2.47a3.68,3.68,0,0,1-3.23,2.57c-.48.06-.27.79.2.72,2.11-.28,4.2-2.14,3.82-4.44a2.64,2.64,0,0,0-3.72-2c-.43.22-.05.86.38.65Z"/>
        </g>
      </g>
      <g>
        <path class="cls-8" d="M443.69,975.64a268.3,268.3,0,0,0-.83,64.23,1.86,1.86,0,0,0,.31,1,1.8,1.8,0,0,0,.8.48,24.4,24.4,0,0,0,17-.15,9.27,9.27,0,0,0-4.91-5.28,27.51,27.51,0,0,0-7.09-2.06c1.87-12.58,3.81-25.39,9.34-36.85.79-1.64,1.78-3.36,3.46-4a5.44,5.44,0,0,1,5.48,1.33,17.23,17.23,0,0,1,3.34,4.88c6.75,12.6,15.27,24.16,23.76,35.67a2,2,0,0,0,1.2,1,2,2,0,0,0,1.31-.47,86.17,86.17,0,0,0,9.7-7.47,2.42,2.42,0,0,0,.85-1.14c.2-.82-.48-1.6-1.21-2-2.24-1.37-5.1-1.13-7.55-2.08-3.39-1.32-5.45-4.69-7.21-7.87-5.54-10-8-24.95-10.39-36.14"/>
        <path class="cls-8" d="M443.32,975.64a279.24,279.24,0,0,0-2,49.12q.32,6.11.88,12.2c.11,1.19-.13,3.29.77,4.27,1.49,1.62,5.74,1.82,7.78,1.94a26.58,26.58,0,0,0,10.34-1.58.38.38,0,0,0,.22-.55,10.75,10.75,0,0,0-6.4-6c-1-.39-3.67-.58-4.37-1.21-1.58-1.43-.65-3.48-.38-5.23,1.4-9,3.06-18,6.37-26.46,1.54-4,4.53-13.75,12.3-5.33,1.4,1.52,2.26,4.08,3.27,5.86,2.14,3.78,4.44,7.48,6.83,11.11,2.73,4.16,5.6,8.23,8.51,12.26,2,2.71,4.23,7.48,6.94,9.41,3.22,2.29,8-3.52,10.49-5.57,4.21-3.52,3-5.6-2.23-6.72-5.43-1.15-8.23-3.82-10.84-8.59a62.31,62.31,0,0,1-4.81-12c-2.37-7.88-3.82-16-5.53-24-.1-.47-.82-.27-.72.2,2.81,13.14,4.46,28.58,12.59,39.77a12.7,12.7,0,0,0,4.58,4.17c1.19.58,2.6.56,3.76,1.08q3.78,0,3.35,5l-1.34,1.12c-.57.71-5.68,5.08-7,5.14-2.14.09-4.29-3.46-5.32-4.86-2.58-3.51-5.14-7-7.62-10.61-4.77-6.86-9.1-13.92-13.17-21.21-1.72-3.08-4.76-7.4-9-5.69-4.86,2-6.84,11.74-8.1,16.12-2.37,8.17-3.63,16.6-4.88,25a.38.38,0,0,0,.26.46,41.21,41.21,0,0,1,4.34,1c1.57.49,6.69,2.63,6.86,4.82.26,3.33-10.73,2.61-12.69,1.9-6.89-2.48-5.37-16.3-5.58-22.65a279.77,279.77,0,0,1,2.22-43.67c.06-.48-.69-.47-.75,0Z"/>
      </g>
      <g>
        <path class="cls-8" d="M477.61,920.24c-5.42,17.32-17.84,31.7-31.94,43.12-1.63,1.32-3.68,2.69-5.67,2a3.36,3.36,0,0,0-1.69-.4c-.71.16-1.07.93-1.32,1.6a218.09,218.09,0,0,0-8.19,27.29,20.46,20.46,0,0,1,5.63,3.79q2.16-13,5.2-25.9a6.16,6.16,0,0,1,.92-2.36,6.36,6.36,0,0,1,1.5-1.29,119.16,119.16,0,0,0,37-41.66,6.29,6.29,0,0,0,1.05-4.09c-.29-1.41-2.06-2.53-3.21-1.67"/>
        <path class="cls-8" d="M477.24,920.14c-5.09,15.6-15.34,28.61-27.55,39.34-1.64,1.44-3.61,3.58-5.51,4.53a9.4,9.4,0,0,1-5,.7,2,2,0,0,0-.9-.08,4.63,4.63,0,0,0-2,2.77,182.12,182.12,0,0,0-7.86,26.4.38.38,0,0,0,.17.42,24.79,24.79,0,0,1,5.55,3.73c.19.17.58.13.63-.17.89-5.27,1.86-10.53,2.95-15.77,1.17-5.6,1.6-11.41,6.52-15a119.33,119.33,0,0,0,19.55-17.88,117,117,0,0,0,14.74-21c1.2-2.21,3.64-9.48-1.79-7.76-.46.15-.26.87.2.72q3.3,3.58.95,6.66-.8,1.45-1.63,2.87-1.68,2.85-3.51,5.61a119.08,119.08,0,0,1-24.37,26.69c-2.42,2-6.19,3.74-8.11,6.25s-2,6.93-2.69,9.89q-1.4,6.46-2.57,13c-.24,1.34,0,3.84-1.62,4.29-1.35.37-3.71-3.29-3.82-4.16-.22-1.77,1.18-4.71,1.65-6.45q.87-3.21,1.84-6.39c1.23-4,2.27-11.75,6.82-13.55-.24.09,3.19-.28,3.17-.28a11.79,11.79,0,0,0,2.83-1.83,88,88,0,0,0,8.49-7.46c10.48-10.06,19.05-22,23.59-35.86.15-.46-.57-.66-.72-.2Z"/>
      </g>
      <g>
        <path class="cls-11" d="M506.79,923a17.21,17.21,0,0,0,.54-3.44l8.33-1.23a41.7,41.7,0,0,1,5.94-.59.4.4,0,0,1,.5.42l.41,3.38a.66.66,0,0,1-.63.9c-5.23,1.06-10.63,2.13-15.87,1.14a.93.93,0,0,1-.56-.25c-.33-.39.13-1,.54-1.26"/>
        <path class="cls-8" d="M507.15,923.05c.72-3.15,1.11-3.3,4.45-3.79,2-.3,7-1.84,8.81-1.16,2.13.79,2,3,.16,4.18-.85.53-2.62.51-3.66.68a44.52,44.52,0,0,1-4.81.55c-.32,0-6.77-.23-5.86-1.21.33-.35-.2-.88-.53-.53-.64.69-.67.61-.65,1.52a.37.37,0,0,0,.19.32c3.08,1.37,7.42.72,10.63.26,2.17-.31,6.32,0,7-2.38.21-.7,0-3.3-.57-3.89s-1.44-.27-1.91-.26c-4.38.11-8.85,1.16-13.17,1.8a.38.38,0,0,0-.28.36,16.64,16.64,0,0,1-.53,3.34c-.11.47.62.67.72.2Z"/>
      </g>
      <g>
        <path class="cls-9" d="M521,927.86a1.56,1.56,0,0,0-1.61-.43,3.26,3.26,0,0,0-1.44.94,7.66,7.66,0,0,0-2.21,5.22,1.62,1.62,0,0,0,.22,1,1.84,1.84,0,0,0,2.08.35,4.61,4.61,0,0,0,2.72-3.06,12.12,12.12,0,0,0,.29-4.06l-.31.2"/>
        <path class="cls-8" d="M521.25,927.6c-3-2.84-7,4.49-5.71,7,.81,1.56,3.05.67,4-.2,1.89-1.69,1.93-4.27,1.84-6.61a.38.38,0,0,0-.56-.32l-.31.2c-.41.26,0,.91.38.65l.31-.2-.56-.32c.09,2.25.05,6.25-2.91,6.76-2.51.43-1.49-2.81-.9-4s2.39-3.86,3.88-2.43c.35.33.88-.2.53-.53Z"/>
      </g>
      <g>
        <path class="cls-9" d="M444.54,920.93c-6.27,8.47-12.64,17.47-14.14,27.9l1.07-.25a86.23,86.23,0,0,0,13-11"/>
        <path class="cls-8" d="M444.22,920.74c-6.3,8.54-12.38,17.33-14.17,28a.38.38,0,0,0,.46.46c5.09-1.2,10.72-7.8,14.21-11.32.34-.34-.19-.87-.53-.53a80.84,80.84,0,0,1-10.13,8.92,12.93,12.93,0,0,1-2.29,1.54q-1.48,1.32-.72-.51c-.32-1.4,1.07-4.21,1.55-5.55,2.72-7.59,7.53-14.2,12.28-20.63.29-.39-.36-.76-.65-.38Z"/>
      </g>
      <g>
        <path class="cls-11" d="M451,916q1.76-1.12,3.45-2.35a1.41,1.41,0,0,0,.53-.56c.21-.51-.21-1-.58-1.44a46.78,46.78,0,0,1-7.79-11.13,16.56,16.56,0,0,1-4.67,3.46c-.42.21-.91.49-.92,1a1.25,1.25,0,0,0,.19.59l3.06,5.93"/>
        <path class="cls-8" d="M451.18,916.33c2.11-1.36,5.06-2.26,3.53-4.85-1-1.73-2.81-3.2-4-4.85a50.06,50.06,0,0,1-3.79-6.28.38.38,0,0,0-.59-.08,41.05,41.05,0,0,1-4.59,3.4c-.48.36-1,.5-1.09,1.18-.09.46.3,1,.48,1.37.83,1.85,1.88,3.64,2.81,5.44.22.43.87.05.65-.38a36.11,36.11,0,0,1-2-4,3.08,3.08,0,0,1-.42-3l.86-.46a14.33,14.33,0,0,1,2.47-1.73c1.43-.75,1.21-.61,2.07.9a47.19,47.19,0,0,0,3.84,5.69,15,15,0,0,1,2.06,2.44c1.18,2.82-.86,3.39-2.6,4.52-.4.26,0,.91.38.65Z"/>
      </g>
      <g>
        <path class="cls-9" d="M434.75,943.52c8.13-7.53,9-8.85,13.25-22.19l.08-.15a10.77,10.77,0,0,0,3.81-1.59,3,3,0,0,0,1-1,1.25,1.25,0,0,0-.1-1.39c-.71-.78-2,0-3-.28s-1.26-1.56-1.56-2.57a8.45,8.45,0,0,0-1.89-3.32,1.27,1.27,0,0,0-.87-.51c-.47,0-.79.48-1,.91a9.37,9.37,0,0,0,.81,9.06"/>
        <path class="cls-8" d="M435,943.78c4-3.7,7.59-7.26,9.8-12.3,1.38-3.14,1.89-8.16,4.69-10.31,1.07-.82,4.26-1.34,4-3.34-.22-1.48-1.11-.81-2.06-1.33-2.17-1.2-2.57-2.77-4-4.68-.32-.44-1.09-1.63-1.8-1.65-4.22-.09-1.64,8.81-.69,10.48a.38.38,0,0,0,.65-.38,6.32,6.32,0,0,1-1.28-5q-1.06-3.63,1.76-1.53c4.25,1.57.22-.15,2.13,1.85-.19-.19,1.58,1.88,1.47,1.7a3.4,3.4,0,0,0,.64,0q2.41-.15-1,3.17c-.22.32-1.23.05-1.42.4a15.66,15.66,0,0,0-1,2.72c-2.7,8.27-6,13.77-12.39,19.67-.35.33.18.86.53.53Z"/>
      </g>
    </g>
  </g>
  <g id="title_question" data-name="title question">
    <text class="cls-12" transform="translate(278.72 133.6)">How many Canadians experience homelessness?</text>
  </g>
  <g id="canada_circle" data-name="canada circle">
    <path class="cls-10" d="M553,459.33V157.59c166.65,0,301.74,135.09,301.74,301.74S719.65,761.07,553,761.07,251.26,626,251.26,459.33,386.35,157.59,553,157.59h0Z"/>
  </g>
  <g id="per_year_circle" data-name="per year circle">
    <path class="cls-6" d="M553,459.33V435a24.33,24.33,0,1,1-24.33,24.33A24.33,24.33,0,0,1,553,435h0Z"/>
  </g>
  <g id="per_night_circle" data-name="per night circle">
    <path class="cls-13" d="M553,459.33v-9.39a9.39,9.39,0,1,1-9.39,9.39,9.39,9.39,0,0,1,9.39-9.39h0Z"/>
  </g>
  <g id="population_label" data-name="population label">
    <text class="cls-12" transform="translate(917.69 483.3)"><tspan class="cls-14">P</tspan><tspan x="13.45" y="0">opulation of Canada: 361 550 00 </tspan></text>
    <line class="cls-15" x1="854.53" y1="480.37" x2="916.54" y2="483.3"/>
  </g>
  <g id="per_year_label" data-name="per year label">
    <text class="cls-12" transform="translate(869.35 374.88)">235 000 per <tspan class="cls-14" x="122.15" y="0">y</tspan><tspan x="132.56" y="0">ear</tspan></text>
    <line class="cls-15" x1="577.33" y1="454.41" x2="868.69" y2="375.11"/>
  </g>
  <g id="pernight_label" data-name="pernight label">
    <text class="cls-12" transform="translate(815.04 267.64)">35 000 per night</text>
    <line class="cls-15" x1="560.73" y1="454.41" x2="816.57" y2="267.78"/>
  </g>
</svg>
