<svg xmlns="http://www.w3.org/2000/svg" viewBox="0 0 1920 1080">
  <defs>
    <style>
      .cls-1 {
        fill: #333;
      }

      .cls-14, .cls-17, .cls-2 {
        font-size: 28.47px;
      }

      .cls-2, .cls-20, .cls-21 {
        fill: #ccc;
      }

      .cls-14, .cls-17, .cls-2, .cls-20, .cls-21, .cls-22 {
        font-family: DINCondensed-Bold, DIN Condensed;
      }

      .cls-14, .cls-17, .cls-2, .cls-20, .cls-21, .cls-22, .cls-3 {
        font-weight: 700;
      }

      .cls-3 {
        font-size: 12px;
        fill: gray;
        font-family: RobotoCondensed-Bold, Roboto Condensed;
      }

      .cls-4 {
        letter-spacing: -0.01em;
      }

      .cls-5 {
        letter-spacing: -0.01em;
      }

      .cls-6 {
        letter-spacing: -0.01em;
      }

      .cls-7 {
        letter-spacing: -0.01em;
      }

      .cls-8 {
        letter-spacing: -0.01em;
      }

      .cls-9 {
        letter-spacing: 0.02em;
      }

      .cls-10 {
        fill: #515151;
      }

      .cls-11 {
        letter-spacing: -0.06em;
      }

      .cls-12, .cls-17 {
        letter-spacing: -0.01em;
      }

      .cls-13 {
        letter-spacing: 0em;
      }

      .cls-14, .cls-17, .cls-27 {
        fill: #7c7c7c;
      }

      .cls-15 {
        letter-spacing: -0.01em;
      }

      .cls-16 {
        letter-spacing: -0.01em;
      }

      .cls-18, .cls-19 {
        fill: none;
        stroke-miterlimit: 10;
        stroke-width: 0.5px;
      }

      .cls-18 {
        stroke: #1a1a1a;
      }

      .cls-19 {
        stroke: #7c786e;
      }

      .cls-20 {
        font-size: 30.31px;
      }

      .cls-21 {
        font-size: 45.64px;
      }

      .cls-22 {
        font-size: 33.19px;
      }

      .cls-22, .cls-28 {
        fill: #c1272d;
      }

      .cls-23 {
        letter-spacing: -0.02em;
      }

      .cls-24 {
        letter-spacing: -0.01em;
      }

      .cls-25 {
        letter-spacing: -0.01em;
      }

      .cls-26 {
        letter-spacing: 0.02em;
      }

      .cls-29 {
        fill: #e9f1f1;
      }

      .cls-30 {
        font-size: 25.98px;
        font-family: FrederickatheGreat-Regular, Fredericka the Great;
      }

      .cls-30, .cls-31 {
        fill: #c4c0b5;
      }

      .cls-32 {
        fill: #7c786e;
      }

      .cls-33 {
        fill: #727377;
      }

      .cls-34 {
        fill: #c2c5cc;
      }

      .cls-35 {
        fill: #fff;
      }
    </style>
  </defs>
  <title>20160321_prototype-assets_004</title>
  <g id="frame5">
    <g id="bg">
      <rect class="cls-1" width="1920" height="1080"/>
    </g>
    <g id="details">
      <text class="cls-2" transform="translate(1240.74 841.65)">details</text>
      <text class="cls-3" transform="translate(1238.85 866.19)">Lo<tspan class="cls-4" x="11.71" y="0">r</tspan><tspan x="15.58" y="0">em ipsum dolor sit amet, consectetuer adipiscing </tspan><tspan x="0" y="14.4">elit, sed diam nonummy nibh euismod tincidunt ut </tspan><tspan x="0" y="28.8">lao</tspan><tspan class="cls-4" x="14.64" y="28.8">r</tspan><tspan x="18.51" y="28.8">eet dolo</tspan><tspan class="cls-4" x="57.36" y="28.8">r</tspan><tspan x="61.22" y="28.8">e magna aliquam e</tspan><tspan class="cls-5" x="151.26" y="28.8">r</tspan><tspan x="155.06" y="28.8">at </tspan><tspan class="cls-6" x="167.16" y="28.8">v</tspan><tspan x="172.46" y="28.8">olutpat. Ut wisi </tspan><tspan x="0" y="43.2">enim ad minim </tspan><tspan class="cls-7" x="73.22" y="43.2">v</tspan><tspan x="78.53" y="43.2">eniam, quis nostrud e</tspan><tspan class="cls-8" x="181.93" y="43.2">x</tspan><tspan x="187.24" y="43.2">e</tspan><tspan class="cls-4" x="192.98" y="43.2">r</tspan><tspan x="196.85" y="43.2">ci tation </tspan><tspan x="0" y="57.6">ullamcorper suscipit lobo</tspan><tspan class="cls-9" x="122.07" y="57.6">r</tspan><tspan x="126.34" y="57.6">tis nisl ut aliquip ex ea </tspan><tspan x="0" y="72">commodo consequat. Duis autem </tspan><tspan class="cls-7" x="162.57" y="72">v</tspan><tspan x="167.88" y="72">el eum iriu</tspan><tspan class="cls-4" x="218.66" y="72">r</tspan><tspan x="222.53" y="72">e </tspan><tspan x="0" y="86.4">dolor in hend</tspan><tspan class="cls-4" x="62.85" y="86.4">r</tspan><tspan x="66.72" y="86.4">erit in vulputate </tspan><tspan class="cls-7" x="145.31" y="86.4">v</tspan><tspan x="150.62" y="86.4">elit esse molestie </tspan></text>
    </g>
    <g id="choose_cause" data-name="choose cause">
      <rect class="cls-10" x="1231.94" y="420.41" width="283.07" height="351.44"/>
      <rect class="cls-1" x="1235.54" y="423.83" width="273.69" height="39.34"/>
      <text class="cls-2" transform="translate(1265.71 452.12)"><tspan class="cls-11">T</tspan><tspan x="7.69" y="0">otal </tspan><tspan class="cls-12" x="45.15" y="0">b</tspan><tspan class="cls-13" x="55.88" y="0">y external causes</tspan></text>
      <text class="cls-14" transform="translate(1294.49 502.77)">Motor <tspan class="cls-15" x="55.91" y="0">v</tspan><tspan x="65.76" y="0">ehi</tspan><tspan class="cls-16" x="92.66" y="0">c</tspan><tspan x="102.85" y="0">le</tspan></text>
      <text class="cls-14" transform="translate(1294.49 553.42)">Suicide</text>
      <text class="cls-14" transform="translate(1294.49 604.07)">Falls</text>
      <text class="cls-14" transform="translate(1294.49 650.75)">Homocide</text>
      <text class="cls-17" transform="translate(1294.49 700.67)">P<tspan class="cls-13" x="11.25" y="0">oisoning</tspan></text>
      <text class="cls-14" transform="translate(1294.49 746.29)">Other</text>
      <polyline class="cls-18" points="1509.04 423.82 1235.54 423.65 1235.54 463.34"/>
      <polyline class="cls-19" points="1509.04 423.48 1509.04 463.17 1235.54 463.17"/>
    </g>
    <g id="gender_toggle" data-name="gender toggle">
      <rect class="cls-10" x="1231.94" y="334.34" width="215.04" height="46.18"/>
      <rect class="cls-1" x="1235.54" y="337.77" width="106.08" height="39.88"/>
      <text class="cls-2" transform="translate(1266.17 366.06)">male</text>
      <text class="cls-14" transform="translate(1365.75 366.06)">female</text>
      <polyline class="cls-18" points="1341.62 337.95 1235.54 337.95 1235.54 377.64"/>
      <polyline class="cls-19" points="1341.62 337.95 1341.62 377.64 1235.54 377.64"/>
    </g>
    <g id="axes">
      <text class="cls-20" transform="translate(610.83 918.47)">Housed</text>
      <text class="cls-20" transform="translate(934.12 918.47)">Homeless</text>
    </g>
    <g id="title">
      <text class="cls-21" transform="translate(610.83 201.18)">Deaths due to external causes</text>
      <text class="cls-22" transform="translate(607.95 253.14)"><tspan class="cls-23">F</tspan><tspan x="11.68" y="0">or </tspan><tspan class="cls-24" x="39.37" y="0">e</tspan><tspan class="cls-25" x="51.25" y="0">v</tspan><tspan x="62.74" y="0">e</tspan><tspan class="cls-26" x="75.02" y="0">r</tspan><tspan x="84.84" y="0">y 3 housed people, 10 homeless people die.</tspan><tspan x="0" y="39.83">This is a difference of 158 people.</tspan></text>
    </g>
    <g id="bar_dots" data-name="bar dots">
      <g>
        <circle class="cls-27" cx="816.63" cy="874.21" r="7.1"/>
        <circle class="cls-27" cx="794.56" cy="874.21" r="7.1"/>
        <circle class="cls-27" cx="772.5" cy="874.21" r="7.1"/>
        <circle class="cls-27" cx="750.43" cy="874.21" r="7.1"/>
        <circle class="cls-27" cx="728.36" cy="874.21" r="7.1"/>
        <circle class="cls-27" cx="706.29" cy="874.21" r="7.1"/>
        <circle class="cls-27" cx="684.22" cy="874.21" r="7.1"/>
        <circle class="cls-27" cx="662.16" cy="874.21" r="7.1"/>
        <circle class="cls-27" cx="640.09" cy="874.21" r="7.1"/>
        <circle class="cls-27" cx="618.02" cy="874.21" r="7.1"/>
      </g>
      <g>
        <circle class="cls-27" cx="816.63" cy="850.39" r="7.1"/>
        <circle class="cls-27" cx="794.56" cy="850.39" r="7.1"/>
        <circle class="cls-27" cx="772.5" cy="850.39" r="7.1"/>
        <circle class="cls-27" cx="750.43" cy="850.39" r="7.1"/>
        <circle class="cls-27" cx="728.36" cy="850.39" r="7.1"/>
        <circle class="cls-27" cx="706.29" cy="850.39" r="7.1"/>
        <circle class="cls-27" cx="684.22" cy="850.39" r="7.1"/>
        <circle class="cls-27" cx="662.16" cy="850.39" r="7.1"/>
        <circle class="cls-27" cx="640.09" cy="850.39" r="7.1"/>
        <circle class="cls-27" cx="618.02" cy="850.39" r="7.1"/>
      </g>
      <g>
        <circle class="cls-27" cx="816.63" cy="826.58" r="7.1"/>
        <circle class="cls-27" cx="794.56" cy="826.58" r="7.1"/>
        <circle class="cls-27" cx="772.5" cy="826.58" r="7.1"/>
        <circle class="cls-27" cx="750.43" cy="826.58" r="7.1"/>
        <circle class="cls-27" cx="728.36" cy="826.58" r="7.1"/>
        <circle class="cls-27" cx="706.29" cy="826.58" r="7.1"/>
        <circle class="cls-27" cx="684.22" cy="826.58" r="7.1"/>
        <circle class="cls-27" cx="662.16" cy="826.58" r="7.1"/>
        <circle class="cls-27" cx="640.09" cy="826.58" r="7.1"/>
        <circle class="cls-27" cx="618.02" cy="826.58" r="7.1"/>
      </g>
      <g>
        <circle class="cls-27" cx="816.63" cy="802.76" r="7.1"/>
        <circle class="cls-27" cx="794.56" cy="802.76" r="7.1"/>
        <circle class="cls-27" cx="772.5" cy="802.76" r="7.1"/>
        <circle class="cls-27" cx="750.43" cy="802.76" r="7.1"/>
        <circle class="cls-27" cx="728.36" cy="802.76" r="7.1"/>
        <circle class="cls-27" cx="706.29" cy="802.76" r="7.1"/>
        <circle class="cls-27" cx="684.22" cy="802.76" r="7.1"/>
        <circle class="cls-27" cx="662.16" cy="802.76" r="7.1"/>
        <circle class="cls-27" cx="640.09" cy="802.76" r="7.1"/>
        <circle class="cls-27" cx="618.02" cy="802.76" r="7.1"/>
      </g>
      <g>
        <circle class="cls-27" cx="816.63" cy="778.94" r="7.1"/>
        <circle class="cls-27" cx="794.56" cy="778.94" r="7.1"/>
        <circle class="cls-27" cx="772.5" cy="778.94" r="7.1"/>
        <circle class="cls-27" cx="750.43" cy="778.94" r="7.1"/>
        <circle class="cls-27" cx="728.36" cy="778.94" r="7.1"/>
        <circle class="cls-27" cx="706.29" cy="778.94" r="7.1"/>
        <circle class="cls-27" cx="684.22" cy="778.94" r="7.1"/>
        <circle class="cls-27" cx="662.16" cy="778.94" r="7.1"/>
        <circle class="cls-27" cx="640.09" cy="778.94" r="7.1"/>
        <circle class="cls-27" cx="618.02" cy="778.94" r="7.1"/>
      </g>
      <g>
        <circle class="cls-27" cx="816.63" cy="755.12" r="7.1"/>
        <circle class="cls-27" cx="794.56" cy="755.12" r="7.1"/>
        <circle class="cls-27" cx="772.5" cy="755.12" r="7.1"/>
        <circle class="cls-27" cx="750.43" cy="755.12" r="7.1"/>
        <circle class="cls-27" cx="728.36" cy="755.12" r="7.1"/>
        <circle class="cls-27" cx="706.29" cy="755.12" r="7.1"/>
        <circle class="cls-27" cx="684.22" cy="755.12" r="7.1"/>
        <circle class="cls-27" cx="662.16" cy="755.12" r="7.1"/>
        <circle class="cls-27" cx="640.09" cy="755.12" r="7.1"/>
        <circle class="cls-27" cx="618.02" cy="755.12" r="7.1"/>
      </g>
      <circle class="cls-27" cx="750.43" cy="731.31" r="7.1"/>
      <circle class="cls-27" cx="728.36" cy="731.31" r="7.1"/>
      <circle class="cls-27" cx="706.29" cy="731.31" r="7.1"/>
      <circle class="cls-27" cx="684.22" cy="731.31" r="7.1"/>
      <circle class="cls-27" cx="662.16" cy="731.31" r="7.1"/>
      <circle class="cls-27" cx="640.09" cy="731.31" r="7.1"/>
      <circle class="cls-27" cx="618.02" cy="731.31" r="7.1"/>
      <g>
        <circle class="cls-27" cx="1097.49" cy="874.21" r="7.1"/>
        <circle class="cls-27" cx="1075.42" cy="874.21" r="7.1"/>
        <circle class="cls-27" cx="1053.35" cy="874.21" r="7.1"/>
        <circle class="cls-27" cx="1031.29" cy="874.21" r="7.1"/>
        <circle class="cls-27" cx="1009.22" cy="874.21" r="7.1"/>
        <circle class="cls-27" cx="987.15" cy="874.21" r="7.1"/>
        <circle class="cls-27" cx="965.08" cy="874.21" r="7.1"/>
        <circle class="cls-27" cx="943.01" cy="874.21" r="7.1"/>
        <circle class="cls-27" cx="920.95" cy="874.21" r="7.1"/>
        <circle class="cls-27" cx="898.88" cy="874.21" r="7.1"/>
      </g>
      <g>
        <circle class="cls-27" cx="1097.49" cy="850.54" r="7.1"/>
        <circle class="cls-27" cx="1075.42" cy="850.54" r="7.1"/>
        <circle class="cls-27" cx="1053.35" cy="850.54" r="7.1"/>
        <circle class="cls-27" cx="1031.29" cy="850.54" r="7.1"/>
        <circle class="cls-27" cx="1009.22" cy="850.54" r="7.1"/>
        <circle class="cls-27" cx="987.15" cy="850.54" r="7.1"/>
        <circle class="cls-27" cx="965.08" cy="850.54" r="7.1"/>
        <circle class="cls-27" cx="943.01" cy="850.54" r="7.1"/>
        <circle class="cls-27" cx="920.95" cy="850.54" r="7.1"/>
        <circle class="cls-27" cx="898.88" cy="850.54" r="7.1"/>
      </g>
      <g>
        <circle class="cls-27" cx="1097.49" cy="826.88" r="7.1"/>
        <circle class="cls-27" cx="1075.42" cy="826.88" r="7.1"/>
        <circle class="cls-27" cx="1053.35" cy="826.88" r="7.1"/>
        <circle class="cls-27" cx="1031.29" cy="826.88" r="7.1"/>
        <circle class="cls-27" cx="1009.22" cy="826.88" r="7.1"/>
        <circle class="cls-27" cx="987.15" cy="826.88" r="7.1"/>
        <circle class="cls-27" cx="965.08" cy="826.88" r="7.1"/>
        <circle class="cls-27" cx="943.01" cy="826.88" r="7.1"/>
        <circle class="cls-27" cx="920.95" cy="826.88" r="7.1"/>
        <circle class="cls-27" cx="898.88" cy="826.88" r="7.1"/>
      </g>
      <g>
        <circle class="cls-27" cx="1097.49" cy="803.21" r="7.1"/>
        <circle class="cls-27" cx="1075.42" cy="803.21" r="7.1"/>
        <circle class="cls-27" cx="1053.35" cy="803.21" r="7.1"/>
        <circle class="cls-27" cx="1031.29" cy="803.21" r="7.1"/>
        <circle class="cls-27" cx="1009.22" cy="803.21" r="7.1"/>
        <circle class="cls-27" cx="987.15" cy="803.21" r="7.1"/>
        <circle class="cls-27" cx="965.08" cy="803.21" r="7.1"/>
        <circle class="cls-27" cx="943.01" cy="803.21" r="7.1"/>
        <circle class="cls-27" cx="920.95" cy="803.21" r="7.1"/>
        <circle class="cls-27" cx="898.88" cy="803.21" r="7.1"/>
      </g>
      <g>
        <circle class="cls-27" cx="1097.49" cy="779.54" r="7.1"/>
        <circle class="cls-27" cx="1075.42" cy="779.54" r="7.1"/>
        <circle class="cls-27" cx="1053.35" cy="779.54" r="7.1"/>
        <circle class="cls-27" cx="1031.29" cy="779.54" r="7.1"/>
        <circle class="cls-27" cx="1009.22" cy="779.54" r="7.1"/>
        <circle class="cls-27" cx="987.15" cy="779.54" r="7.1"/>
        <circle class="cls-27" cx="965.08" cy="779.54" r="7.1"/>
        <circle class="cls-27" cx="943.01" cy="779.54" r="7.1"/>
        <circle class="cls-27" cx="920.95" cy="779.54" r="7.1"/>
        <circle class="cls-27" cx="898.88" cy="779.54" r="7.1"/>
      </g>
      <g>
        <circle class="cls-27" cx="1097.49" cy="755.88" r="7.1"/>
        <circle class="cls-27" cx="1075.42" cy="755.88" r="7.1"/>
        <circle class="cls-27" cx="1053.35" cy="755.88" r="7.1"/>
        <circle class="cls-27" cx="1031.29" cy="755.88" r="7.1"/>
        <circle class="cls-27" cx="1009.22" cy="755.88" r="7.1"/>
        <circle class="cls-27" cx="987.15" cy="755.88" r="7.1"/>
        <circle class="cls-27" cx="965.08" cy="755.88" r="7.1"/>
        <circle class="cls-27" cx="943.01" cy="755.88" r="7.1"/>
        <circle class="cls-27" cx="920.95" cy="755.88" r="7.1"/>
        <circle class="cls-27" cx="898.88" cy="755.88" r="7.1"/>
      </g>
      <circle class="cls-28" cx="1097.49" cy="732.21" r="7.1"/>
      <circle class="cls-28" cx="1075.42" cy="732.21" r="7.1"/>
      <circle class="cls-28" cx="1053.35" cy="732.21" r="7.1"/>
      <circle class="cls-27" cx="1031.29" cy="732.21" r="7.1"/>
      <circle class="cls-27" cx="1009.22" cy="732.21" r="7.1"/>
      <circle class="cls-27" cx="987.15" cy="732.21" r="7.1"/>
      <circle class="cls-27" cx="965.08" cy="732.21" r="7.1"/>
      <circle class="cls-27" cx="943.01" cy="732.21" r="7.1"/>
      <circle class="cls-27" cx="920.95" cy="732.21" r="7.1"/>
      <circle class="cls-27" cx="898.88" cy="732.21" r="7.1"/>
      <g>
        <circle class="cls-28" cx="1097.49" cy="708.54" r="7.1"/>
        <circle class="cls-28" cx="1075.42" cy="708.54" r="7.1"/>
        <circle class="cls-28" cx="1053.35" cy="708.54" r="7.1"/>
        <circle class="cls-28" cx="1031.29" cy="708.54" r="7.1"/>
        <circle class="cls-28" cx="1009.22" cy="708.54" r="7.1"/>
        <circle class="cls-28" cx="987.15" cy="708.54" r="7.1"/>
        <circle class="cls-28" cx="965.08" cy="708.54" r="7.1"/>
        <circle class="cls-28" cx="943.01" cy="708.54" r="7.1"/>
        <circle class="cls-28" cx="920.95" cy="708.54" r="7.1"/>
        <circle class="cls-28" cx="898.88" cy="708.54" r="7.1"/>
      </g>
      <g>
        <circle class="cls-28" cx="1097.49" cy="684.88" r="7.1"/>
        <circle class="cls-28" cx="1075.42" cy="684.88" r="7.1"/>
        <circle class="cls-28" cx="1053.35" cy="684.88" r="7.1"/>
        <circle class="cls-28" cx="1031.29" cy="684.88" r="7.1"/>
        <circle class="cls-28" cx="1009.22" cy="684.88" r="7.1"/>
        <circle class="cls-28" cx="987.15" cy="684.88" r="7.1"/>
        <circle class="cls-28" cx="965.08" cy="684.88" r="7.1"/>
        <circle class="cls-28" cx="943.01" cy="684.88" r="7.1"/>
        <circle class="cls-28" cx="920.95" cy="684.88" r="7.1"/>
        <circle class="cls-28" cx="898.88" cy="684.88" r="7.1"/>
      </g>
      <g>
        <circle class="cls-28" cx="1097.49" cy="661.21" r="7.1"/>
        <circle class="cls-28" cx="1075.42" cy="661.21" r="7.1"/>
        <circle class="cls-28" cx="1053.35" cy="661.21" r="7.1"/>
        <circle class="cls-28" cx="1031.29" cy="661.21" r="7.1"/>
        <circle class="cls-28" cx="1009.22" cy="661.21" r="7.1"/>
        <circle class="cls-28" cx="987.15" cy="661.21" r="7.1"/>
        <circle class="cls-28" cx="965.08" cy="661.21" r="7.1"/>
        <circle class="cls-28" cx="943.01" cy="661.21" r="7.1"/>
        <circle class="cls-28" cx="920.95" cy="661.21" r="7.1"/>
        <circle class="cls-28" cx="898.88" cy="661.21" r="7.1"/>
      </g>
      <g>
        <circle class="cls-28" cx="1097.49" cy="637.54" r="7.1"/>
        <circle class="cls-28" cx="1075.42" cy="637.54" r="7.1"/>
        <circle class="cls-28" cx="1053.35" cy="637.54" r="7.1"/>
        <circle class="cls-28" cx="1031.29" cy="637.54" r="7.1"/>
        <circle class="cls-28" cx="1009.22" cy="637.54" r="7.1"/>
        <circle class="cls-28" cx="987.15" cy="637.54" r="7.1"/>
        <circle class="cls-28" cx="965.08" cy="637.54" r="7.1"/>
        <circle class="cls-28" cx="943.01" cy="637.54" r="7.1"/>
        <circle class="cls-28" cx="920.95" cy="637.54" r="7.1"/>
        <circle class="cls-28" cx="898.88" cy="637.54" r="7.1"/>
      </g>
      <circle class="cls-28" cx="1097.49" cy="613.88" r="7.1"/>
      <circle class="cls-28" cx="1075.42" cy="613.88" r="7.1"/>
      <circle class="cls-28" cx="1053.35" cy="613.88" r="7.1"/>
      <circle class="cls-28" cx="1031.29" cy="613.88" r="7.1"/>
      <circle class="cls-28" cx="1009.22" cy="613.88" r="7.1"/>
      <circle class="cls-28" cx="987.15" cy="613.88" r="7.1"/>
      <circle class="cls-28" cx="965.08" cy="613.88" r="7.1"/>
      <circle class="cls-28" cx="943.01" cy="613.88" r="7.1"/>
      <circle class="cls-28" cx="920.95" cy="613.88" r="7.1"/>
      <circle class="cls-28" cx="898.88" cy="613.88" r="7.1"/>
      <g>
        <circle class="cls-28" cx="1097.49" cy="590.21" r="7.1"/>
        <circle class="cls-28" cx="1075.42" cy="590.21" r="7.1"/>
        <circle class="cls-28" cx="1053.35" cy="590.21" r="7.1"/>
        <circle class="cls-28" cx="1031.29" cy="590.21" r="7.1"/>
        <circle class="cls-28" cx="1009.22" cy="590.21" r="7.1"/>
        <circle class="cls-28" cx="987.15" cy="590.21" r="7.1"/>
        <circle class="cls-28" cx="965.08" cy="590.21" r="7.1"/>
        <circle class="cls-28" cx="943.01" cy="590.21" r="7.1"/>
        <circle class="cls-28" cx="920.95" cy="590.21" r="7.1"/>
        <circle class="cls-28" cx="898.88" cy="590.21" r="7.1"/>
      </g>
      <g>
        <circle class="cls-28" cx="1097.49" cy="566.55" r="7.1"/>
        <circle class="cls-28" cx="1075.42" cy="566.55" r="7.1"/>
        <circle class="cls-28" cx="1053.35" cy="566.55" r="7.1"/>
        <circle class="cls-28" cx="1031.29" cy="566.55" r="7.1"/>
        <circle class="cls-28" cx="1009.22" cy="566.55" r="7.1"/>
        <circle class="cls-28" cx="987.15" cy="566.55" r="7.1"/>
        <circle class="cls-28" cx="965.08" cy="566.55" r="7.1"/>
        <circle class="cls-28" cx="943.01" cy="566.55" r="7.1"/>
        <circle class="cls-28" cx="920.95" cy="566.55" r="7.1"/>
        <circle class="cls-28" cx="898.88" cy="566.55" r="7.1"/>
      </g>
      <g>
        <circle class="cls-28" cx="1097.49" cy="542.88" r="7.1"/>
        <circle class="cls-28" cx="1075.42" cy="542.88" r="7.1"/>
        <circle class="cls-28" cx="1053.35" cy="542.88" r="7.1"/>
        <circle class="cls-28" cx="1031.29" cy="542.88" r="7.1"/>
        <circle class="cls-28" cx="1009.22" cy="542.88" r="7.1"/>
        <circle class="cls-28" cx="987.15" cy="542.88" r="7.1"/>
        <circle class="cls-28" cx="965.08" cy="542.88" r="7.1"/>
        <circle class="cls-28" cx="943.01" cy="542.88" r="7.1"/>
        <circle class="cls-28" cx="920.95" cy="542.88" r="7.1"/>
        <circle class="cls-28" cx="898.88" cy="542.88" r="7.1"/>
      </g>
      <g>
        <circle class="cls-28" cx="1097.49" cy="519.21" r="7.1"/>
        <circle class="cls-28" cx="1075.42" cy="519.21" r="7.1"/>
        <circle class="cls-28" cx="1053.35" cy="519.21" r="7.1"/>
        <circle class="cls-28" cx="1031.29" cy="519.21" r="7.1"/>
        <circle class="cls-28" cx="1009.22" cy="519.21" r="7.1"/>
        <circle class="cls-28" cx="987.15" cy="519.21" r="7.1"/>
        <circle class="cls-28" cx="965.08" cy="519.21" r="7.1"/>
        <circle class="cls-28" cx="943.01" cy="519.21" r="7.1"/>
        <circle class="cls-28" cx="920.95" cy="519.21" r="7.1"/>
        <circle class="cls-28" cx="898.88" cy="519.21" r="7.1"/>
      </g>
      <g>
        <circle class="cls-28" cx="1097.49" cy="495.55" r="7.1"/>
        <circle class="cls-28" cx="1075.42" cy="495.55" r="7.1"/>
        <circle class="cls-28" cx="1053.35" cy="495.55" r="7.1"/>
        <circle class="cls-28" cx="1031.29" cy="495.55" r="7.1"/>
        <circle class="cls-28" cx="1009.22" cy="495.55" r="7.1"/>
        <circle class="cls-28" cx="987.15" cy="495.55" r="7.1"/>
        <circle class="cls-28" cx="965.08" cy="495.55" r="7.1"/>
        <circle class="cls-28" cx="943.01" cy="495.55" r="7.1"/>
        <circle class="cls-28" cx="920.95" cy="495.55" r="7.1"/>
        <circle class="cls-28" cx="898.88" cy="495.55" r="7.1"/>
      </g>
      <g>
        <circle class="cls-28" cx="1097.49" cy="471.88" r="7.1"/>
        <circle class="cls-28" cx="1075.42" cy="471.88" r="7.1"/>
        <circle class="cls-28" cx="1053.35" cy="471.88" r="7.1"/>
        <circle class="cls-28" cx="1031.29" cy="471.88" r="7.1"/>
        <circle class="cls-28" cx="1009.22" cy="471.88" r="7.1"/>
        <circle class="cls-28" cx="987.15" cy="471.88" r="7.1"/>
        <circle class="cls-28" cx="965.08" cy="471.88" r="7.1"/>
        <circle class="cls-28" cx="943.01" cy="471.88" r="7.1"/>
        <circle class="cls-28" cx="920.95" cy="471.88" r="7.1"/>
        <circle class="cls-28" cx="898.88" cy="471.88" r="7.1"/>
      </g>
      <g>
        <circle class="cls-28" cx="1097.49" cy="448.21" r="7.1"/>
        <circle class="cls-28" cx="1075.42" cy="448.21" r="7.1"/>
        <circle class="cls-28" cx="1053.35" cy="448.21" r="7.1"/>
        <circle class="cls-28" cx="1031.29" cy="448.21" r="7.1"/>
        <circle class="cls-28" cx="1009.22" cy="448.21" r="7.1"/>
        <circle class="cls-28" cx="987.15" cy="448.21" r="7.1"/>
        <circle class="cls-28" cx="965.08" cy="448.21" r="7.1"/>
        <circle class="cls-28" cx="943.01" cy="448.21" r="7.1"/>
        <circle class="cls-28" cx="920.95" cy="448.21" r="7.1"/>
        <circle class="cls-28" cx="898.88" cy="448.21" r="7.1"/>
      </g>
      <g>
        <circle class="cls-28" cx="1097.49" cy="424.55" r="7.1"/>
        <circle class="cls-28" cx="1075.42" cy="424.55" r="7.1"/>
        <circle class="cls-28" cx="1053.35" cy="424.55" r="7.1"/>
        <circle class="cls-28" cx="1031.29" cy="424.55" r="7.1"/>
        <circle class="cls-28" cx="1009.22" cy="424.55" r="7.1"/>
        <circle class="cls-28" cx="987.15" cy="424.55" r="7.1"/>
        <circle class="cls-28" cx="965.08" cy="424.55" r="7.1"/>
        <circle class="cls-28" cx="943.01" cy="424.55" r="7.1"/>
        <circle class="cls-28" cx="920.95" cy="424.55" r="7.1"/>
        <circle class="cls-28" cx="898.88" cy="424.55" r="7.1"/>
      </g>
      <g>
        <circle class="cls-28" cx="1097.49" cy="400.88" r="7.1"/>
        <circle class="cls-28" cx="1075.42" cy="400.88" r="7.1"/>
        <circle class="cls-28" cx="1053.35" cy="400.88" r="7.1"/>
        <circle class="cls-28" cx="1031.29" cy="400.88" r="7.1"/>
        <circle class="cls-28" cx="1009.22" cy="400.88" r="7.1"/>
        <circle class="cls-28" cx="987.15" cy="400.88" r="7.1"/>
        <circle class="cls-28" cx="965.08" cy="400.88" r="7.1"/>
        <circle class="cls-28" cx="943.01" cy="400.88" r="7.1"/>
        <circle class="cls-28" cx="920.95" cy="400.88" r="7.1"/>
        <circle class="cls-28" cx="898.88" cy="400.88" r="7.1"/>
      </g>
      <g>
        <circle class="cls-28" cx="1097.49" cy="377.21" r="7.1"/>
        <circle class="cls-28" cx="1075.42" cy="377.21" r="7.1"/>
        <circle class="cls-28" cx="1053.35" cy="377.21" r="7.1"/>
        <circle class="cls-28" cx="1031.29" cy="377.21" r="7.1"/>
        <circle class="cls-28" cx="1009.22" cy="377.21" r="7.1"/>
        <circle class="cls-28" cx="987.15" cy="377.21" r="7.1"/>
        <circle class="cls-28" cx="965.08" cy="377.21" r="7.1"/>
        <circle class="cls-28" cx="943.01" cy="377.21" r="7.1"/>
        <circle class="cls-28" cx="920.95" cy="377.21" r="7.1"/>
        <circle class="cls-28" cx="898.88" cy="377.21" r="7.1"/>
      </g>
      <circle class="cls-28" cx="1009.22" cy="353.55" r="7.1"/>
      <circle class="cls-28" cx="987.15" cy="353.55" r="7.1"/>
      <circle class="cls-28" cx="965.08" cy="353.55" r="7.1"/>
      <circle class="cls-28" cx="943.01" cy="353.55" r="7.1"/>
      <circle class="cls-28" cx="920.95" cy="353.55" r="7.1"/>
      <circle class="cls-28" cx="898.88" cy="353.55" r="7.1"/>
    </g>
    <g id="continue_link" data-name="continue link">
      <g>
        <g>
          <path class="cls-29" d="M1837,607.46c-.1.16.08.28.47,0l.11-.46Z"/>
          <path class="cls-29" d="M1840,606.29c.39-.43.8-1,.33-1.08-.31.56-.49.52-.8,1.16-.39.28-.77.35-.76.2-.1.16-.67.33-.78.64a3.59,3.59,0,0,0,1.93-1.13C1840.13,606.06,1840,606.22,1840,606.29Z"/>
          <path class="cls-29" d="M1865.3,577.93l.23.2A1.52,1.52,0,0,0,1865.3,577.93Z"/>
          <path class="cls-29" d="M1839.17,566.11l-.11,0,.49-1.21c.14,0,.2,0,.22,0l-.21,0-.51,1.28C1839.14,566.13,1839.19,566.14,1839.17,566.11Z"/>
          <path class="cls-29" d="M1843.42,568.58l-.25-.15A.54.54,0,0,0,1843.42,568.58Z"/>
          <path class="cls-29" d="M1865.3,577.93l-.59-.52C1864.6,577.47,1865,577.7,1865.3,577.93Z"/>
          <path class="cls-29" d="M1845.09,602.23a1.92,1.92,0,0,0-.31.29l.32-.24A.28.28,0,0,1,1845.09,602.23Z"/>
          <path class="cls-29" d="M1869.19,588.64l-.18.18a1.42,1.42,0,0,0-.05.25Z"/>
          <path class="cls-29" d="M1861,594.31c.19-.11.11-.39.12-.53a.82.82,0,0,1-.31.42A.29.29,0,0,0,1861,594.31Z"/>
          <path class="cls-29" d="M1847.55,602l-.21.18Z"/>
          <path class="cls-29" d="M1870.15,581.38a.21.21,0,0,0,0-.14S1870.14,581.31,1870.15,581.38Z"/>
          <path class="cls-29" d="M1664.8,585.88s0,0,0-.05S1664.72,585.88,1664.8,585.88Z"/>
          <path class="cls-29" d="M1653.45,584.51l.16,0a.53.53,0,0,0,0-.16Z"/>
          <path class="cls-29" d="M1851.08,573.23l0,0C1850.83,573.11,1851,573.17,1851.08,573.23Z"/>
          <path class="cls-29" d="M1806.88,583.2c.94.25-1.53.32-.11.6C1806.64,583.69,1808.05,583.36,1806.88,583.2Z"/>
          <path class="cls-29" d="M1845.32,602.13l.34-.21A2.52,2.52,0,0,0,1845.32,602.13Z"/>
          <path class="cls-29" d="M1806.77,583.8h0l.15,0Z"/>
          <path class="cls-29" d="M1865.45,583l.28.07Z"/>
          <path class="cls-29" d="M1855.85,575.55l.3.24A2.59,2.59,0,0,0,1855.85,575.55Z"/>
          <path class="cls-29" d="M1861,583.48a1.7,1.7,0,0,0-.56,0l.09,0A.86.86,0,0,1,1861,583.48Z"/>
          <path class="cls-29" d="M1852.59,583.49l.16.06.27,0Z"/>
          <path class="cls-29" d="M1690.28,585.71a1.24,1.24,0,0,1-.39-.25C1690,585.66,1688.79,585.73,1690.28,585.71Z"/>
          <path class="cls-29" d="M1845.17,602.36a.31.31,0,0,1,.15-.23l-.23.16S1845.11,602.37,1845.17,602.36Z"/>
          <path class="cls-29" d="M1860.65,585.69l-1.33,0C1859.69,585.68,1860.17,585.69,1860.65,585.69Z"/>
          <path class="cls-29" d="M1750.43,585.58l-.31,0A.74.74,0,0,0,1750.43,585.58Z"/>
          <path class="cls-29" d="M1855.36,585.7a3.07,3.07,0,0,0-.75-.19.57.57,0,0,0-.15.07Z"/>
          <path class="cls-29" d="M1689.89,585.46h0Z"/>
          <path class="cls-29" d="M1681.12,586.14c1.27,0,.59-.36.86-.57,1.51-.11.7.27,1.22.46.95-.1,1.67-.44,2.37-.43.05.06.19.08,0,.16,1-.29,3,0,4.13-.39a.34.34,0,0,1,.15.09.51.51,0,0,1-.18-.51c.57,0,1.05-.23,1.27,0a.79.79,0,0,0-.54.17l.6-.11c.54.35-.81.12-.81.38a21,21,0,0,1,3.41-.31c.19.34-2.08.12-.89.42l-1.38-.13c1.06.53-.84,0,.13.54,1.81.1,2-.18,3.84-.08.41-.19-.14-.28.27-.47,2.57-.34,2,.85,3.92.4a2.26,2.26,0,0,1,2-.43l-.46.38c1.76,0,1-.55,2.84-.3-.33.15-1.38.13-1.11.17,1.19.3.84-.22,1.76-.22l.19.34c1.87-.06,3.93-.3,6-.37-.11.1-.47.21,0,.31a58.47,58.47,0,0,1,8.1.23l1-.29c.22,0,.42.13.17.19,1,.11,0-.19.52-.3s.74.17.39.26a27.08,27.08,0,0,1,6.76-.23l-.36.09c1.42.12,1.6-.6,2.92-.33l-.25.05c3.09.12,6.49-.15,8.85.29.45-.42,3.05.18,3.25-.41a22.67,22.67,0,0,0,3.74.59c.66,0,1-.37,1.8-.43l0,.31,1.11-.32.59.37.77-.08c-.31,0-.65-.14-.61-.23a6.27,6.27,0,0,1,3,.37l2.84-.26c-.06.12-.54.17-.91.25,1.51-.32.28.32,1.66,0-.19-.07.1-.18.13-.25a14,14,0,0,0,3.44.1l-.22.21c2.11.05,4.44-.11,6.8-.11-.85-.1-.66-.47,0-.5l.28.33c.45-.2-.72-.12.19-.37.88,0,.6.37.09.48l1.07-.11c.06.1-.19.15-.25.27.44-.2,1.85.32,2.49,0l.06.1c2.36,0,3.43-.11,5.36-.13,0-.28.79-.22,1.36-.45,1.42.09,3,.31,4.69.28,1.2-.14.35-.24.89-.41.09.26,1.79.23.91.42,2,0,2.61-.05,5.2-.27-.28-.1-.6-.15-.43-.24.47,0,1.07.11,1,.23l-.12,0c2.9-.39,6.71.74,9,.2l-.13,0,2.4-.28c1.1,0-.66.19.16.35,2.58-.43,4.09.06,6.22-.23,1.65.75,5.85-.06,8.08.42l-.13-.18c.57-.17.7.1,1.12.14-.06-.14-.62-.16-.27-.26,4.87-.22,10.06.25,15.06.4,1.83,0,1-.92,3.34-.5l-.65.33c3.69-.4,7.54,0,11.15-.34-.21.08-.22.18-.57.17a5.44,5.44,0,0,0,2.83-.19c.56,0,.13.18.48.28.77.14,1.92-.31,2.33-.07.07,0-.21.08-.35.1.5-.12,2.32,0,1.84-.25,1.36.13,2.59-.13,3.67,0,.7-.31,2.32.15,2.54-.29-.09.45,2.38.36,3.23.15-.29.14.75.14.41.33,1,0,1.87-.09,1.7-.33a4.46,4.46,0,0,0,1.34.17h.33l.44,0,1.06-.07a11.38,11.38,0,0,1,3.77.17l1.73-.1.82,0s.18,0,.15,0l-.2-.16-.4-.31-2.95-2.27-2.62-2-1.65-1.17c.17-.15.76.29,1.32.71l1,.75c.35.24.62.38.71.3-.45-.34-.9-.68-1.28-.94l-.7-.43-1.3-.78a23.63,23.63,0,0,1-2.64-1.8c-.48-.43.41.05.63.12-2.12-1.32-3.92-2.82-5.92-3.82,0,0,.25.06.46.15-.38-.23-.82-.61-.89-.41l.39.19c.42.63-1.79-.42-1.94-.32.94-.11-1.77-1.28-.39-1.29-.26-.12-.62-.23-.64-.07-.34-.25-.42-.39,0-.3-1.4-.71-1-.25-2.25-1,.05-.08.32,0,.51,0a7.35,7.35,0,0,1-2.44-1.05c.09,0,0-.15.32,0-1.82-1-3.31-1.25-5.23-2.43.79-.08-.62-.48-.56-.86l-1.14-.44.36.38c-.95-.48-1.92-.63-2.69-1.13l.78.2-1.19-.51-.54,1.36.66.21-.63-.32.46-1.15.36.23a1,1,0,0,0-.44-.06l-.32.8c.29-.07-.11-.37.89.07a10,10,0,0,1,1.43.75h0a4.69,4.69,0,0,1,1.77.51c.14.19-.3.33-.21.45.59-.11,2.32.83,3,.78-.23,0-.32.17-.27.23l.5-.07c.42.26.47.33.33.44,1.32.63-.24-.62,1.27.26-.13,0-.09,0-.37-.05,1.56.8,3.14,1.25,4.53,2.08.26.54-1.3-.53-1,0a54.57,54.57,0,0,1,6.38,3l-.34-.24c.53-.3,1.32,1,2.41,1.42-.26-.11-.46.07-.37.05,1.28.85,2.74,1.51,4.78,2.65l-.31,0c.68.6,1.93,1.39,2.69,2,.32.05.76.4.6,0,1,1.19,2.09,1.94,2.66,3a2.72,2.72,0,0,1-.51,3.36c.17-.25.22-.65.12-.45a7,7,0,0,1-1.15,1.73c.29,0,.3-.1.74-.33a3,3,0,0,1-.86,1.22c.64-.8-.26-.25-.66-.09.1,0,0,.16.11.19-1.17.4.15.52-1.33,1.23v-.15a8.56,8.56,0,0,1-1.44,1.14c-.37-.08.49-.45.41-.66-.78.5-1.29,1.39-2.14,1.6.29-.27.77-.57,1.07-.84a4.42,4.42,0,0,0-1.59.65l.06,0-1.41.7.38-.14c-.62,1.2-1.94,1.35-3,2.55,1.06-1.16.08-.34,0-.66-.38.14-.95.38-.85.21-.5.6-1.15.48-1.84,1.33-.09-.06-.68.41-.66.11-.77.57.28,0,.28.17-1.08,1.06-3.16,1.48-4.73,3-1.46,1.12-1.57,1.58-2.93,2.61-.57.17.21-.55.21-.55a8.15,8.15,0,0,0-2.12,1.31c.11-.17-.09-.13-.37-.08-.58.39-.21.55-1.07.91a2.4,2.4,0,0,1,.39-.7c-.65.51-1.25,1.09-1.93,1.62-.28,0,.3-.49.5-.74-.78.57-2,1.44-2.14,1.82l.57-.24c-.29.19-.27-.1-.08-.28.59-.61,1.06-.54,1.15-.48l-.48.37c.83.16,2-1.36,3.09-2l-.21.62.89-1c.28,0,.56.05.08.42.85-.29.58-.53,1.34-.73.09,0,.07,0,0,.08l.66-.56c-.1.16.28.17-.2.4,1.43-.6,1.95-1.57,2.6-1.61l-.1.09c1.74-1.24,0-.37,1.19-1.51l1.31.07,0-.37c.19-.11.58-.32.57-.17.59-.61-.19,0,.11-.46,1-.32,2.42-1.65,2.88-1.36.2-.4-1,.38-.08-.35.55.28,1.07-.76,2-1.07-.11.39-1,.75,0,.44.26-.7,1.66-.91,2.3-1.41-.16-.33,1.43-1.06,2.53-1.89a31.32,31.32,0,0,0,3.46-1.79v.07c0-.44,1.13-1.17,1.79-1.92.12.18.06.37-.29.81.24-.21.47-.42.7-.65a4,4,0,0,1,.6-1c0,.12,0,.24.06.36a6.81,6.81,0,0,0,1.41-4.16c-.13,0-.29.32-.45.44s-.29,0-.48-.73c.12-.08.35-.2.48.23a4.32,4.32,0,0,1-.23-.78,4.65,4.65,0,0,1,.38.62c-.06-.78-.25-.35-.43-.91.2-.07-.06-.46.12-.45s.15.53.29.74c-.15-.7-.55-1.48-.62-1.8-.05.12-.2.15-.55-.2-.91-.89-.14-.49-.63-1.07-.32-.1-.87-.69-1.06-.46a.8.8,0,0,1-.33-.51c-.58-.26-2.41-1.63-2-1l.12.11-.09,0h0c-1.84-.91-3.44-2.47-5.25-3.41l.05-.08a26,26,0,0,0-3.21-1.54c-.31-.17-.65-.56-.46-.59a8.5,8.5,0,0,1-2.09-1.1c.9.28-.21-.28.9.33a6.77,6.77,0,0,0-2.47-1.25c.51,0-.66-.7-1.22-.87l.68.53c-.59-.25-1.09-.51-1.6-.78l.42-.17c-2.07-1.43-4.32-1.22-5.79-2.56-.69,0,1.17.67.53.69-1-.48-1.95-1.35-2.28-1.48-1.39-.73-1.53-.07-3-.74.16.18.23.54-.94.25a3.06,3.06,0,0,1-.45-.22l-.18.46c.57.42.5.74-.06.56l-.16-.08.58-1.45c.14.06.19.11.18.13.36.08.83.19.45-.08l-.18.06a4.21,4.21,0,0,0-.42-.21l-.65,1.63c.57.34,1.38.74,1.05.76.81.26.41,0-.13-.34,1.23.76,2,1,3.29,1.74-.18-.17-.31-.39-.1-.28,1.86,1.12,1,.23,2.28.87.65.55-.47.24.91.8.74.53,0,.37-.34.28a10.69,10.69,0,0,1,2.77,1.75l-.66-.26a6.67,6.67,0,0,1,1,.51l-.23-.41c.34.24.64.42.59.5.45.08-.09-.51.76-.26.42.38,1.52.76,1.52,1.12-1.44-1,0,.37-1.29-.35a4.6,4.6,0,0,1,.89.54c0,.06-.08,0-.19,0,1.28,1.1.84.08,2.31,1-.28,0,.16.5.42.61-.59-.37-.12-.43.49-.2.86.72,1.07.57,1.55.9l-.52-.42c.28,0,.74.29,1.42.68,0,.15-.64-.31-.44-.11.89.22,1.44,1.34,2.53,1.86.39.42-.15.3.2.65,1.23.58,1,1,2.29,1.71-.19-.43-.28-.43.66,0-.65-.42-1.31-.82-2-1.23l1.41.59c-.57-.41-1.29-.75-1.6-1,.69.26.6.26.44-.09.57.85,1.67.94,2.41,1.81l-.38.45a9.3,9.3,0,0,0,1.9,1.41l.53.32.26.14a2.11,2.11,0,0,1,.5.4,1.44,1.44,0,0,0-.1-.21,1,1,0,0,1,.54.28,2.86,2.86,0,0,0,.54.44,2.72,2.72,0,0,0-.73-.08c.15,0,.42.19.21.18s-.15.09.16.28q-.53-.13-.9-.26c-.41-.05-.46.09-.72.23a1.84,1.84,0,0,1-.65.2,4.75,4.75,0,0,1-1,.07c.51-.22-.26-.35.87-.51-.56,0-1.07,0-1.08.1-.33-.12-1.56.27-2.08.08a1.48,1.48,0,0,1-.95.28c-.07,0,0-.1,0-.1s-1,.13-.44.35c-1.74-.61-4.86.05-6.37-.48-1.23.07-2.71.13-3.83.15.07-.06,0-.1.21-.08-1.54-.18-.94.57-2.7.37-.9-.32.93-.17.37-.29-.25-.65-2.12.09-3.3-.29l.29,0c-.9-.22-2.2.25-3.67.21,0,0,.07-.06,0-.1a22.07,22.07,0,0,1-4.33.54c.44-.25.64-.14.37-.39-.64,0,.19.41-1.08.49-.41-.14-1.33-.26-1.45-.53l1.2,0c-.61-.36-1.55,0-2.18,0l.08-.16c-1.83.05-1.86.45-3.83.42l.2.12c-1.08.39-.9-.22-2,.07l-.33-.39c-.71.1-2.49.38-3.76.46a21.93,21.93,0,0,1,3.13-.62,11.35,11.35,0,0,0-2.76.23,2.93,2.93,0,0,1,.92-.08,10.15,10.15,0,0,1-3.4.46c.25-.77-3.66-.19-4.68-.78-2.48.29-4.93-.11-7.82-.06,1,.59-.84,0-.66.63a3,3,0,0,1-1,0l-2-.36c-.48-.18.64-.14.58-.27-1.48,0-.62-.26-1.6-.42.2.22-.51.31-1.35.23l1.19.28c-2.06.33-1.79-.51-3.86-.19l.66-.19c-1.07.12-3.94,0-5,.49-.19-.07-.44-.24,0-.28-2.55-.07-5.67.53-7.66.23l.19-.15a3.37,3.37,0,0,1-1.42.13c0-.06.19-.15,0-.16a6.87,6.87,0,0,1-1.89.18l.54-.17c-2.49-.19-3.81.42-5.9.52,0-.44-2-.58-2.93-.65l0-.06c-2.9-.05-4.92.37-7.6.55-1.67-.48-5.64-.19-8.32-.46.41.08-.06.34-.54.39-.63-.09-1.73.31-1.64-.1h.22c-.47-.4-1.76-.29-2.77-.3l-.16.53c-2.64-.76-6.9.29-8.34-.39-.64.13-1.42.13-2.05.27l0-.28c-1.76-.07-2.64-.1-4.82,0l.44-.2c-1.23,0-1.55.82-2.68.84l-.34-.42c-2.14,0-4.31-.36-6.43,0,0-.06.1-.18.44-.2-1,0-3.9-.28-3.53.3,0-.38-2.21,0-3.37.13l.18-.28a5.84,5.84,0,0,1-2.37.56c-.32,0-.28-.22.15-.15-1.08-.14-.84.27-2.14.12l.49-.18a2.87,2.87,0,0,0-1.63.28,4,4,0,0,1-2.27-.32,2.09,2.09,0,0,1-1.41.29c-.09-.1.15-.15.27-.18-1.85-.19-2.75.33-4,.06a.27.27,0,0,0-.22-.17c1.47,0,2.66,0,2.55,0,0-.26-1.19-.3-.25-.66a14.1,14.1,0,0,1-3.74.5.54.54,0,0,1-.15-.09l.12,0a2.55,2.55,0,0,0-.73,0,8.41,8.41,0,0,0-1-.08c-.14-.21-1.36-.11-2-.12.05.28-.73.24,0,.47-.09,0,.11,0,.51,0l.25,0,0,0,1.47,0a2.85,2.85,0,0,1-1.61.11c-.3.18-.64.37-.83.46-.81-.39-2.38-.6-2.6-.84-1.81.16-4.26.11-5.4.64-.51.07-.59-.15-.79-.23a5.14,5.14,0,0,0,.81-.12c-1,.14-3,.06-3.29.43-1.3-.17.73-.34-1.05-.28l.24-.11c-3.51-.58-5.7.95-9.59.2.27,0,.4.07.46.13-4.43-.33-9.13.33-13.51-.2a4.37,4.37,0,0,0-2.14.31l-.27-.3-1.3.35c-1.84.26-3.19-.74-5.52-.25l.3.2c-.84,0-2.65.12-2.51-.11a.67.67,0,0,1-.6.11l0-.16-2.05.27c-1.59-.11.25-.63-2.08-.65-.86.06-2.46.46-2.13.57s.89.1.92.26l-.79.08c-.14.47-.75.94,1.2,1.27l1.35-.29.44.23-1.14,0a2.22,2.22,0,0,0,1.51-.11,1,1,0,0,0,.57.25l1.32-.45c.16.18-.59.36.3.46.62-.21-.6-.41.43-.54.65.21.46.38,1.22.2.11.12-.05.2-.35.25.68-.14,1.79-.06,2.14-.31.68.26,2.28-.07,2.22.37a6.71,6.71,0,0,1,1.81-.37c-1.13.53,2.32,0,2,.59.84-.48,3-.21,4.51-.48a.72.72,0,0,1-.38.09,8.9,8.9,0,0,1,1.62.27c.11-.39,1.41-.48,2.11-.73,1,.38-.62.46-.3.82-.05-.32,1.78-.32,1.43-.58.79.23.68.11,1.08.44.14-.49.73-.08,1.38-.39,1.14.24.29.46,1.54.31C1682.22,586,1681.12,586.14,1681.12,586.14Zm29.64-.89h0l-.61,0Zm2.49,0h-1.08c-.09-.1,0-.2.26-.19C1712.29,585.1,1712.88,585.16,1713.25,585.24ZM1708,583.3c.39,0,.53,0,.58.07l-.69,0,0,0A.4.4,0,0,1,1708,583.3Z"/>
          <path class="cls-29" d="M1707.26,583.67l-.16,0,.24.06.14-.09Z"/>
          <path class="cls-29" d="M1865.56,578.17l0,0a.36.36,0,0,1,.07.09A.33.33,0,0,1,1865.56,578.17Z"/>
          <polygon class="cls-29" points="1747.66 585.73 1747.65 585.65 1747.44 585.72 1747.66 585.73"/>
          <path class="cls-29" d="M1867.34,588.62a.36.36,0,0,0-.18.06A.45.45,0,0,0,1867.34,588.62Z"/>
          <path class="cls-29" d="M1862.44,591.79l-.77.36C1862,592,1862.25,591.89,1862.44,591.79Z"/>
          <path class="cls-29" d="M1858.49,594.07a.29.29,0,0,0,0,.15h0Z"/>
          <path class="cls-29" d="M1856.61,573.8l.16.09C1857.15,574.07,1856.9,573.93,1856.61,573.8Z"/>
          <path class="cls-29" d="M1841.52,566.7l-.69-.11C1841.18,566.74,1841.45,566.85,1841.52,566.7Z"/>
          <path class="cls-29" d="M1860.79,585.7h0Z"/>
          <path class="cls-29" d="M1839.89,566.25a3.5,3.5,0,0,0,.94.34A5.44,5.44,0,0,0,1839.89,566.25Z"/>
          <path class="cls-29" d="M1841.62,604.34l-.19.11a0,0,0,0,1,0,.05Z"/>
          <path class="cls-29" d="M1841.43,604.5l-.19.16C1841.33,604.6,1841.41,604.55,1841.43,604.5Z"/>
          <path class="cls-29" d="M1840.84,605l.4-.33C1841.08,604.75,1840.89,604.86,1840.84,605Z"/>
          <path class="cls-29" d="M1846.82,601.28v-.12A.13.13,0,0,0,1846.82,601.28Z"/>
          <path class="cls-29" d="M1848.36,600.29a9.59,9.59,0,0,0-1.53.77v.1C1847,600.88,1848.1,600.66,1848.36,600.29Z"/>
          <path class="cls-29" d="M1855.53,597.34l-1.35.74c.29,0,.66-.11.08.28C1856.08,597.62,1853.8,598.36,1855.53,597.34Z"/>
          <path class="cls-29" d="M1859.67,595c-.68.48.09.13.09.2C1860.15,594.82,1860.24,594.73,1859.67,595Z"/>
          <path class="cls-29" d="M1856.47,572.34l.2-.18C1856.09,571.88,1856.62,572.24,1856.47,572.34Z"/>
          <polygon class="cls-29" points="1850.01 570.53 1850.5 570.95 1850.86 570.86 1850.01 570.53"/>
          <polygon class="cls-29" points="1847.2 567.28 1847.47 567.36 1846.45 567.02 1847.2 567.28"/>
          <path class="cls-29" d="M1854.08,583.24l.19.31C1854.71,583.5,1854.8,583.14,1854.08,583.24Z"/>
          <path class="cls-29" d="M1829.13,583.6a2.11,2.11,0,0,0-1.41-.1C1828.28,583.51,1828.84,583.64,1829.13,583.6Z"/>
          <polygon class="cls-29" points="1754.27 583.19 1754.77 583.08 1753.82 583.17 1754.27 583.19"/>
        </g>
        <text class="cls-30" transform="translate(1661.39 571.57)">continue story</text>
      </g>
    </g>
    <g id="nav">
      <path class="cls-31" d="M199.14,1029.25H116.36a1.83,1.83,0,0,0-1.83,1.83v15.1a1.83,1.83,0,0,0,1.83,1.83h82.77a1.83,1.83,0,0,0,1-.3l11.61-7.55a1.83,1.83,0,0,0,0-3.07l-11.61-7.55A1.83,1.83,0,0,0,199.14,1029.25Z"/>
      <path class="cls-32" d="M288.62,1029.25H210.13a1.81,1.81,0,0,0-1,3.34l7,4.52a1.81,1.81,0,0,1,0,3l-7,4.52a1.81,1.81,0,0,0,1,3.34h78.49a1.81,1.81,0,0,0,1-.29l11.64-7.57a1.81,1.81,0,0,0,0-3l-11.64-7.57A1.81,1.81,0,0,0,288.62,1029.25Z"/>
      <path class="cls-32" d="M378.2,1029.25H298.52a1.49,1.49,0,0,0-.81,2.74l8.29,5.39a1.49,1.49,0,0,1,0,2.5l-8.29,5.39a1.49,1.49,0,0,0,.81,2.74H378.2a1.49,1.49,0,0,0,.81-.24l12.14-7.89a1.49,1.49,0,0,0,0-2.5L379,1029.49A1.49,1.49,0,0,0,378.2,1029.25Z"/>
      <path class="cls-32" d="M467.61,1029.25H388.82a1.73,1.73,0,0,0-.95,3.19l7.29,4.74a1.73,1.73,0,0,1,0,2.91l-7.29,4.74a1.73,1.73,0,0,0,.95,3.19h78.79a1.73,1.73,0,0,0,.95-.28l11.76-7.65a1.73,1.73,0,0,0,0-2.91l-11.76-7.65A1.73,1.73,0,0,0,467.61,1029.25Z"/>
      <path class="cls-32" d="M557.12,1029.25H478a1.64,1.64,0,0,0-.9,3l7.66,5a1.64,1.64,0,0,1,0,2.76l-7.66,5a1.64,1.64,0,0,0,.9,3h79.12a1.64,1.64,0,0,0,.9-.27l11.9-7.74a1.64,1.64,0,0,0,0-2.76l-11.9-7.74A1.64,1.64,0,0,0,557.12,1029.25Z"/>
      <path class="cls-32" d="M646.55,1029.25H568.05a1.81,1.81,0,0,0-1,3.34l7,4.52a1.81,1.81,0,0,1,0,3l-7,4.52a1.81,1.81,0,0,0,1,3.34h78.49a1.81,1.81,0,0,0,1-.29l11.64-7.57a1.81,1.81,0,0,0,0-3l-11.64-7.57A1.81,1.81,0,0,0,646.55,1029.25Z"/>
      <path class="cls-32" d="M736.12,1029.25H656.44a1.49,1.49,0,0,0-.81,2.74l8.29,5.39a1.49,1.49,0,0,1,0,2.5l-8.29,5.39a1.49,1.49,0,0,0,.81,2.74h79.68a1.49,1.49,0,0,0,.81-.24l12.14-7.89a1.49,1.49,0,0,0,0-2.5l-12.14-7.89A1.49,1.49,0,0,0,736.12,1029.25Z"/>
      <path class="cls-32" d="M825.53,1029.25H746.74a1.73,1.73,0,0,0-.95,3.19l7.29,4.74a1.73,1.73,0,0,1,0,2.91l-7.29,4.74a1.73,1.73,0,0,0,.95,3.19h78.79a1.73,1.73,0,0,0,.95-.28l11.76-7.65a1.73,1.73,0,0,0,0-2.91l-11.76-7.65A1.73,1.73,0,0,0,825.53,1029.25Z"/>
      <path class="cls-32" d="M915,1029.25H835.92a1.64,1.64,0,0,0-.9,3l7.66,5a1.64,1.64,0,0,1,0,2.76l-7.66,5a1.64,1.64,0,0,0,.9,3H915a1.64,1.64,0,0,0,.9-.27l11.9-7.74a1.64,1.64,0,0,0,0-2.76l-11.9-7.74A1.64,1.64,0,0,0,915,1029.25Z"/>
      <path class="cls-32" d="M1006,1029.25H926.33a1.49,1.49,0,0,0-.81,2.74l8.29,5.39a1.49,1.49,0,0,1,0,2.5l-8.29,5.39a1.49,1.49,0,0,0,.81,2.74H1006a1.49,1.49,0,0,0,.81-.24l12.14-7.89a1.49,1.49,0,0,0,0-2.5l-12.14-7.89A1.49,1.49,0,0,0,1006,1029.25Z"/>
      <path class="cls-32" d="M1095.41,1029.25h-78.79a1.73,1.73,0,0,0-.95,3.19l7.29,4.74a1.73,1.73,0,0,1,0,2.91l-7.29,4.74a1.73,1.73,0,0,0,.95,3.19h78.79a1.73,1.73,0,0,0,.95-.28l11.76-7.65a1.73,1.73,0,0,0,0-2.91l-11.76-7.65A1.73,1.73,0,0,0,1095.41,1029.25Z"/>
      <path class="cls-32" d="M1184.92,1029.25h-79.12a1.64,1.64,0,0,0-.9,3l7.66,5a1.64,1.64,0,0,1,0,2.76l-7.66,5a1.64,1.64,0,0,0,.9,3h79.12a1.64,1.64,0,0,0,.9-.27l11.9-7.74a1.64,1.64,0,0,0,0-2.76l-11.9-7.74A1.64,1.64,0,0,0,1184.92,1029.25Z"/>
      <path class="cls-32" d="M1274.35,1029.25h-78.49a1.81,1.81,0,0,0-1,3.34l7,4.52a1.81,1.81,0,0,1,0,3l-7,4.52a1.81,1.81,0,0,0,1,3.34h78.49a1.81,1.81,0,0,0,1-.29l11.64-7.57a1.81,1.81,0,0,0,0-3l-11.64-7.57A1.81,1.81,0,0,0,1274.35,1029.25Z"/>
      <path class="cls-32" d="M1363.93,1029.25h-79.68a1.49,1.49,0,0,0-.81,2.74l8.29,5.39a1.49,1.49,0,0,1,0,2.5l-8.29,5.39a1.49,1.49,0,0,0,.81,2.74h79.68a1.49,1.49,0,0,0,.81-.24l12.14-7.89a1.49,1.49,0,0,0,0-2.5l-12.14-7.89A1.49,1.49,0,0,0,1363.93,1029.25Z"/>
      <path class="cls-32" d="M1453.34,1029.25h-78.79a1.73,1.73,0,0,0-.95,3.19l7.29,4.74a1.73,1.73,0,0,1,0,2.91l-7.29,4.74a1.73,1.73,0,0,0,.95,3.19h78.79a1.73,1.73,0,0,0,.95-.28l11.76-7.65a1.73,1.73,0,0,0,0-2.91l-11.76-7.65A1.73,1.73,0,0,0,1453.34,1029.25Z"/>
      <path class="cls-32" d="M1542.84,1029.25h-79.12a1.64,1.64,0,0,0-.9,3l7.66,5a1.64,1.64,0,0,1,0,2.76l-7.66,5a1.64,1.64,0,0,0,.9,3h79.12a1.64,1.64,0,0,0,.9-.27l11.9-7.74a1.64,1.64,0,0,0,0-2.76l-11.9-7.74A1.64,1.64,0,0,0,1542.84,1029.25Z"/>
      <path class="cls-32" d="M1632.3,1029.25h-78.79a1.73,1.73,0,0,0-.95,3.19l7.29,4.74a1.73,1.73,0,0,1,0,2.91l-7.29,4.74a1.73,1.73,0,0,0,.95,3.19h78.79a1.73,1.73,0,0,0,.95-.28l11.76-7.65a1.73,1.73,0,0,0,0-2.91l-11.76-7.65A1.73,1.73,0,0,0,1632.3,1029.25Z"/>
      <path class="cls-32" d="M1721.8,1029.25h-79.12a1.64,1.64,0,0,0-.9,3l7.66,5a1.64,1.64,0,0,1,0,2.76l-7.66,5a1.64,1.64,0,0,0,.9,3h79.12a1.64,1.64,0,0,0,.9-.27l11.9-7.74a1.64,1.64,0,0,0,0-2.76l-11.9-7.74A1.64,1.64,0,0,0,1721.8,1029.25Z"/>
    </g>
    <g id="expand">
      <path class="cls-32" d="M1786.31,1042.41h-3.78v9.45H1792v-3.78h-5.67Zm-3.78-7.56h3.78v-5.67H1792v-3.78h-9.45Zm22.69,13.23h-5.67v3.78H1809v-9.45h-3.78Zm-5.67-22.69v3.78h5.67v5.67H1809v-9.45Z"/>
    </g>
    <g id="share">
      <path class="cls-32" d="M1883.33,1046.31a5.51,5.51,0,0,0-3.71,1.46l-13.48-7.85a5.23,5.23,0,0,0,0-2.65l13.33-7.77a5.66,5.66,0,1,0-1.82-4.14,6.19,6.19,0,0,0,.17,1.32l-13.33,7.77a5.67,5.67,0,1,0,0,8.28l13.46,7.87a5.33,5.33,0,0,0-.15,1.23,5.52,5.52,0,1,0,5.52-5.52Z"/>
    </g>
    <g id="sound">
      <path class="cls-32" d="M38.82,1032.25v12.6h8.4l10.5,10.5v-33.61l-10.5,10.5Zm28.36,6.3a9.45,9.45,0,0,0-5.25-8.47V1047A9.4,9.4,0,0,0,67.18,1038.55Zm-5.25-18.42v4.33a14.71,14.71,0,0,1,0,28.19V1057a18.89,18.89,0,0,0,0-36.85Z"/>
    </g>
    <g id="exit">
      <path class="cls-32" d="M1885.46,35.59l-2.67-2.67L1872.23,43.5l-10.57-10.57L1859,35.59l10.57,10.57L1859,56.73l2.67,2.67,10.57-10.57L1882.8,59.4l2.67-2.67L1874.9,46.16Z"/>
    </g>
    <g id="back">
      <path class="cls-32" d="M38.13,60.78l2.67-2.67L30.24,47.55h23V43.77h-23L40.79,33.2l-2.67-2.67L23,45.66Z"/>
    </g>
    <g id="adamb">
      <g>
        <g>
          <path class="cls-33" d="M308.35,393.58c3.34,24.1-31,96.74-29.08,118.53.14,1.52-27.67.24-31.34,4.3a3.2,3.2,0,0,0-1,2.13,3.5,3.5,0,0,0,1.82,2.61c8.83,6.14,38.34,17.83,48.42,15.72,3.72-52.55,53.47-72.13,56-108.52.26-3.62,17.74,30.86,25.06,51.79s12.81,43.41,11.19,66l.78,3.25c-.65,3.68-4.71,5.15-8.13,5.71s-7.46,1.39-8.83,4.83c5.61,2.25,11.35,4.53,17.33,4.62s12.34-2.42,15.55-7.89c1.75-3,2.42-6.57,3-10,9.29-51.2,18.63-103.39,13.18-155.24"/>
          <path class="cls-27" d="M306.85,393.58c1.68,13.63-4.08,28.74-8.06,41.52-5.26,16.88-11.35,33.5-16.26,50.49A130.17,130.17,0,0,0,278.08,505c-.18,1.38-.33,2.78-.37,4.17,0,1.19-.61,2.8.8,1.79-1.5,1.07-5.31.5-7.09.58-6.7.3-13.88.1-20.4,1.84-5.17,1.38-7.55,5.94-2.4,9.46,7.33,5,16.39,8.28,24.74,11.14,7.41,2.53,16.3,5.73,24.26,4.34a1.52,1.52,0,0,0,1.1-1.45c1.48-18.74,9.47-35.2,20.67-50,9.22-12.22,20.39-23.17,28.11-36.47a52.7,52.7,0,0,0,6.89-18.65c.06-.38.5-2.12.29-2.37-4.3-5.11-1.61.83-1.57.48,0,.41,1.25,1.91,1.49,2.3,1.65,2.73,3.13,5.57,4.59,8.4,9.38,18.2,17.53,37.12,23,56.88,4,14.62,6.6,29.75,6,45a44.36,44.36,0,0,0,.24,5.78c.27,3.32-2.44,4.49-5.53,5.26-4.42,1.1-8.52,1.36-10.88,5.74a1.53,1.53,0,0,0,.9,2.2c11.51,4.6,28.67,8.85,35.36-5.5,3.61-7.74,4.05-17.85,5.53-26.18,1.6-9,3.14-18,4.56-27.06,5.76-36.78,9.33-74.09,5.56-111.26-.19-1.9-3.2-1.92-3,0,3.41,33.62.85,67.42-4,100.77-2.35,16.16-5.19,32.24-8.09,48.3-1.53,8.45-2.31,18.34-11.73,21.59-7.88,2.72-16.09-.64-23.4-3.55l.9,2.2c2.77-5.14,9.94-3.32,14.19-6.52,3-2.26,2.76-4.32,2.34-7.57-.79-6.2.21-12.88-.33-19.2a158.38,158.38,0,0,0-3.25-20.76c-5-22.52-13.91-43.95-24.23-64.51-1.67-3.33-3.37-6.65-5.23-9.89-.81-1.42-1.89-4.1-3.37-5-1.1-.69-1.86-.77-2.76.27-.73.84-.49,3.47-.65,4.45a43.1,43.1,0,0,1-1.51,6.15c-5.16,16.08-18.18,28.6-28.5,41.46-13.59,16.93-23.87,35.34-25.62,57.37l1.1-1.45c-7.31,1.27-15.87-2-22.67-4.34-7.63-2.61-15.42-5.62-22.35-9.8-1.52-.92-4.35-2-2.23-4.23.65-.69,2.49-.85,3.37-1a70.52,70.52,0,0,1,10.54-1.12c3.23-.19,6.46-.28,9.7-.44,1.75-.09,4.53.22,6.14-.61,2.62-1.36,1.58-7.71,2-10.38A154.66,154.66,0,0,1,286,484.3c4.71-15.87,10.34-31.45,15.29-47.25,4.19-13.35,10.29-29.2,8.53-43.47-.23-1.89-3.24-1.91-3,0Z"/>
        </g>
        <g>
          <path class="cls-34" d="M304.32,390.39,309,312.24c.8-13.23,1.75-27.09,6.95-38.1,4.6-9.74,12-16,19.49-20.89,11.46-7.44,24-12.33,36.54-11.56s25.26,7.61,33.82,20.8c5.67,8.73,9.3,19.75,12.29,30.86a357.53,357.53,0,0,1,12,96.53c0,2-.11,4.2-1,5.73a6.09,6.09,0,0,1-2.75,2.23,199.1,199.1,0,0,1-79.46,21.6c-8.3.43-17,.16-24.27-5.63-7.6-6.08-12.38-17.27-16.82-28"/>
          <path class="cls-27" d="M305.82,390.39l3.07-50.8c1-16.62.92-33.8,4-50.2,2.9-15.47,10.9-26.94,24.13-35.34s29.21-14,44.65-9c15.09,4.95,24.43,18.08,29.86,32.36,5.81,15.26,9.27,31.62,12,47.68a359.05,359.05,0,0,1,5,51.24c.1,3.87.14,7.73.11,11.6,0,3,.18,6.22-2.55,8.32-1.56,1.2-3.85,1.94-5.63,2.78a206,206,0,0,1-24,9.54c-16.93,5.54-34.9,9.12-52.75,9.47-9.34.18-17.87-1.92-24.13-9.31-5.69-6.71-9-15.3-12.38-23.33-.73-1.76-3.63-1-2.89.8,5.44,13.08,11.55,29.12,26.54,33.47,7.46,2.16,15.58,1.42,23.2.73a194.46,194.46,0,0,0,26.39-4.25,201.36,201.36,0,0,0,26.45-8.11q5.88-2.25,11.62-4.84c3.34-1.5,8.17-3,10.81-5.57,1.69-1.67,2.06-4,2.22-6.24.36-5,.07-10.09-.05-15.06q-.38-14.95-2-29.83a346.24,346.24,0,0,0-10.43-55.32c-4.27-15.4-10-31.52-23.06-41.72-11.67-9.14-26.46-11.36-40.59-7.31s-29.12,13.08-37.5,25.49C307.45,283.21,308,304,307,322l-4.13,68.38c-.12,1.93,2.88,1.92,3,0Z"/>
        </g>
        <g>
          <path class="cls-35" d="M347.47,182.06c-7.73-5.1-18.4-.35-24.65,6.48-9.11,10-13.13,23.67-14.23,37.13-.66,8.07-.33,16.39,2.54,24A37.37,37.37,0,0,0,371.26,264c6.18-5.63,10.33-13.23,12.8-21.21,4.47-14.38,3.52-30.74-4.26-43.63S357,177.6,342,179"/>
          <path class="cls-27" d="M348.23,180.76c-18-10.46-33.63,13.38-38,27.71-5.68,18.71-5.89,42.36,9.6,56.48a39.22,39.22,0,0,0,49.84,2.32c15.29-11.58,20.89-33.75,17.65-52-3.83-21.6-22.68-39.39-45.31-37.75-1.91.14-1.93,3.14,0,3,17.51-1.27,33.6,10.13,39.85,26.28,6.19,16,3.83,36.07-6.25,50-10.42,14.43-30.38,19.81-46.27,11.23-17-9.2-21-27.69-18.93-45.63,1.13-9.62,3.91-19.27,9.27-27.41,5.5-8.36,16.67-17.7,27-11.67a1.5,1.5,0,0,0,1.51-2.59Z"/>
        </g>
        <path class="cls-27" d="M329.75,244.08a3.2,3.2,0,0,0-4,.41,3.12,3.12,0,0,0,0,4.25,2.34,2.34,0,0,0,2.28.82,2.44,2.44,0,0,0,1.57-1.6,2.66,2.66,0,0,0-1.65-3.4,1.5,1.5,0,1,0-.8,2.89.67.67,0,0,1-.3-.18q-.18-.26,0-.06-.11-.3,0-.06,0-.33,0-.07t0-.07q-.08.24,0-.06t0-.06a.67.67,0,0,1,.29-.19h.8q.22.11,0,0,.19.16,0,0,.14.2,0,0l-.06-.12q.1.23,0,0,0,.27,0,0-.05.27,0,0-.1.19,0,.05t0,0q.19-.18,0,0,.23-.12,0,0,.23-.05.06,0H328q.27,0,0,0,.25.08,0,0a1.37,1.37,0,0,1,.22.15,1.51,1.51,0,0,0,2.05-.54,1.54,1.54,0,0,0-.54-2.05Z"/>
        <path class="cls-27" d="M356.34,243.49a3.23,3.23,0,0,0-2.88,2.31,3.42,3.42,0,0,0,.73,3.46,1.87,1.87,0,0,0,2.39.35,2.66,2.66,0,0,0,1.15-1.61,2.86,2.86,0,0,0-1.82-3.46,1.5,1.5,0,1,0-.8,2.89.65.65,0,0,1-.28-.21q-.08-.24,0,0,0-.22,0-.06t0-.05q-.07.22,0,.08t0,.06a.5.5,0,0,1,.38-.29l1.16.15q-.23-.14,0,0l-.09-.09q.14.17.05,0t0,.06q0-.23,0-.06t0-.07s0-.48,0-.14c0-.06.12-.45,0-.16,0-.05.2-.42.06-.14.1-.21,0,0,0-.06s.07-.05-.07,0q.25-.06,0,0a1.54,1.54,0,0,0,1.5-1.5,1.51,1.51,0,0,0-1.5-1.5Z"/>
        <path class="cls-27" d="M338,262.56h12a1.5,1.5,0,0,0,0-3H338a1.5,1.5,0,0,0,0,3Z"/>
        <g>
          <path class="cls-35" d="M306.72,234.73c-3.65-2-8.66,2.31-7.52,6.33s7.09,5.37,10.13,2.51"/>
          <path class="cls-27" d="M307.48,233.44c-5-2.39-11.4,2.74-9.65,8.24,1.66,5.21,8.72,6.26,12.57,3,1.47-1.26-.66-3.37-2.12-2.12-2.07,1.78-6,1.34-7.34-1.17-1.53-2.84,2.09-6.72,5-5.32,1.73.83,3.26-1.76,1.51-2.59Z"/>
        </g>
        <g>
          <path class="cls-35" d="M387.85,234.26c2.36-1.62,6-.37,7.2,2.23A6.33,6.33,0,0,1,392.7,244a8.3,8.3,0,0,1-8.19.33"/>
          <path class="cls-27" d="M388.61,235.56c3-1.78,6.08,1.32,5.24,4.41-1,3.76-5.4,4.53-8.58,3.11-1.75-.78-3.28,1.8-1.51,2.59,5.3,2.37,12.36.47,13.19-6,.68-5.32-5.1-9.5-9.85-6.68a1.5,1.5,0,0,0,1.51,2.59Z"/>
        </g>
        <g>
          <path class="cls-35" d="M316.25,184a48.54,48.54,0,0,1,70.83,11.14c6.81,10.3,6.25,26.67.71,37.71-3.25-4.29-2.79-11.59-4.72-16.6l-5,15.8-5.59-25.14-1.67,28.37c-.81-6-15.32-20.16-23.39-24.19-6.4-3.2-18.66-9.32-25.81-9.68h0c2.9,5.76-9.59,16-6.42,27.32l-2.95-7.21c-2.64,2.72-3.51,15.7-2.73,19.41-2-3.95-3.92-17-5.12-21.27-1.82,3.26-1.82,10.29-2.14,14-4.9-4.53-6.22-15.64-4.67-22.13a47.28,47.28,0,0,1,16-25.43"/>
          <path class="cls-27" d="M317,185.33c16-12.34,37.92-13.88,55-2.88,7.74,5,14.8,12.4,17.26,21.46a41.48,41.48,0,0,1-2.81,28.21h2.59c-3.14-4.82-2.78-10.92-4.57-16.24a1.51,1.51,0,0,0-2.89,0l-5,15.8h2.89L374,206.54c-.38-1.72-2.85-1.22-2.95.4l-1.67,28.37,2.95-.4c-.78-3.91-3.77-7.34-6.32-10.25a78,78,0,0,0-13-11.84c-4.49-3.24-9.68-5.52-14.72-7.75-5.3-2.34-10.81-4.64-16.64-5.14a1.51,1.51,0,0,0-1.45,1.9c1.66,4.22-3.13,10-4.74,13.78-1.9,4.44-2.77,8.78-1.68,13.54l2.89-.8-2.95-7.21c-.37-.91-1.72-1.65-2.51-.66-4,5-4.12,14.88-3.12,20.87l2.74-1.16c-2.93-6.47-3.17-14.09-5-20.91a1.52,1.52,0,0,0-2.74-.36c-2.12,4.58-2,9.82-2.35,14.77l2.56-1.06c-5.49-5.67-5.79-15.72-3.69-22.89a46.76,46.76,0,0,1,15-22.55c1.48-1.25-.65-3.36-2.12-2.12-8,6.78-14.35,16.2-16.48,26.62-1.54,7.55-.39,17.32,5.16,23.06a1.52,1.52,0,0,0,2.56-1.06c.32-4.35.07-9.22,1.94-13.25l-2.74-.36c1.87,7.11,2.21,14.88,5.27,21.63.75,1.66,3,.39,2.74-1.16-.81-4.83-.82-14,2.35-17.95l-2.51-.66,2.95,7.21a1.5,1.5,0,0,0,2.89-.8c-1.5-6.53,1.77-12.06,4.55-17.72,1.45-2.94,3.16-6.31,1.87-9.6l-1.45,1.9c5.95.51,11.75,3.16,17.1,5.62a77.41,77.41,0,0,1,11.81,6.2,73.27,73.27,0,0,1,11.6,10.17c2.81,3,6.41,6.62,7.24,10.79.34,1.73,2.85,1.21,2.95-.4L374,206.94l-2.95.4,5.59,25.14c.34,1.51,2.47,1.34,2.89,0l5-15.8h-2.89c1.89,5.62,1.55,11.87,4.88,17a1.51,1.51,0,0,0,2.59,0,45.18,45.18,0,0,0,3.62-28.4c-2-9.84-8.7-17.86-16.68-23.68-18.11-13.2-42.89-12.43-60.53,1.19-1.51,1.16,0,3.77,1.51,2.59Z"/>
        </g>
        <g>
          <path class="cls-35" d="M422.67,293.9c2.78,6.62,2.14,14.11,1.72,21.28A274.8,274.8,0,0,0,428,378.25a14.94,14.94,0,0,0,2.07,6.17c2.7,3.83,8.45,4.66,10.87,8.67,2.9,4.8-1.45,11.59-7,12.36s-10.93-3.05-13.73-7.91-3.56-10.59-4.28-16.15l-8.08-63.18a76.49,76.49,0,0,1-.91-12.4,5.71,5.71,0,0,1,.51-2.53,6.19,6.19,0,0,1,2.5-2.16l12.84-7.56"/>
          <path class="cls-27" d="M421.23,294.3c3,8,1.84,16.39,1.47,24.71q-.53,12,0,24t2.08,23.89c.75,5.71.68,13.81,4.25,18.61,3.41,4.59,13.84,6.21,10.7,13.65-4.6,10.88-16.72,1.79-19.53-5.2-3-7.57-3.23-16.37-4.26-24.39l-3.28-25.67c-1.17-9.14-2.4-18.28-3.51-27.43-.62-5.15-2.12-10.86,2.38-14.5,3.48-2.81,8.18-4.82,12-7.09a1.5,1.5,0,0,0-1.51-2.59c-4.26,2.51-8.69,4.86-12.84,7.56-1.9,1.24-3.21,2.35-3.64,4.68-.79,4.38.24,9.34.79,13.7.66,5.27,1.35,10.53,2,15.8l4,31.59c1.19,9.29,1.38,19.68,4.61,28.55,2.16,5.91,6.63,11.41,13.09,12.65a11.09,11.09,0,0,0,12.41-6.49c2.27-5.28-.59-9.48-5-12.25s-7-4.7-8-10.2c-1.11-5.83-1.85-11.75-2.48-17.65a275,275,0,0,1-1.5-34.48c.21-10.64,2.46-22-1.37-32.22-.67-1.79-3.57-1-2.89.8Z"/>
        </g>
      </g>
    </g>
  </g>
</svg>
